<?xml version="1.0" standalone="no"?>
<!DOCTYPE svg PUBLIC "-//W3C//DTD SVG 20010904//EN"
 "http://www.w3.org/TR/2001/REC-SVG-20010904/DTD/svg10.dtd">
<svg version="1.0" xmlns="http://www.w3.org/2000/svg"
 width="840.000000pt" height="859.000000pt" viewBox="0 0 840.000000 859.000000"
 preserveAspectRatio="xMidYMid meet">

<g transform="translate(0.000000,859.000000) scale(0.100000,-0.100000)"
fill="#000000" stroke="none">
<path d="M990 7852 c0 -17 6 -32 15 -36 8 -3 15 -17 15 -31 0 -14 5 -25 10
-25 6 0 10 -14 10 -30 0 -18 6 -33 15 -36 8 -4 15 -17 15 -30 0 -13 5 -24 10
-24 6 0 10 -11 10 -24 0 -13 7 -29 15 -36 8 -7 15 -21 15 -31 0 -10 5 -21 10
-24 6 -3 10 -19 10 -35 0 -15 7 -30 15 -34 9 -3 15 -18 15 -35 0 -16 5 -33 10
-36 6 -3 10 -14 10 -24 0 -10 7 -24 15 -31 8 -7 12 -16 9 -21 -3 -5 2 -12 10
-15 10 -4 16 -18 16 -39 0 -19 6 -35 14 -38 9 -3 12 -14 9 -25 -3 -12 1 -22
11 -25 9 -4 16 -18 16 -32 0 -14 4 -25 9 -25 5 0 11 -8 15 -17 3 -10 9 -25 14
-33 23 -40 32 -61 32 -80 0 -11 5 -20 10 -20 6 0 18 -18 27 -40 10 -22 21 -40
25 -40 5 0 8 -11 8 -25 0 -14 7 -28 15 -31 8 -4 15 -19 15 -34 0 -16 5 -32 10
-35 6 -3 10 -17 10 -31 0 -13 4 -24 10 -24 5 0 16 -16 25 -35 8 -19 22 -51 30
-70 9 -19 20 -35 25 -35 6 0 10 -9 10 -20 0 -11 5 -20 10 -20 6 0 10 -9 10
-19 0 -10 6 -21 13 -24 7 -2 14 -18 15 -33 1 -16 7 -30 12 -32 6 -2 10 -12 10
-23 0 -10 5 -19 10 -19 6 0 10 -11 10 -24 0 -13 7 -26 15 -30 8 -3 15 -17 15
-31 0 -14 5 -25 10 -25 6 0 10 -9 10 -19 0 -10 7 -22 16 -25 8 -3 12 -10 9
-16 -3 -6 1 -13 9 -16 9 -3 16 -15 16 -25 0 -10 5 -19 10 -19 6 0 10 -11 10
-25 0 -14 7 -28 15 -31 8 -4 15 -18 15 -33 0 -15 9 -37 20 -49 11 -12 20 -30
20 -41 0 -10 7 -21 15 -25 8 -3 15 -17 15 -31 0 -14 5 -25 10 -25 6 0 10 -9
10 -20 0 -11 4 -20 9 -20 5 0 11 -8 15 -17 3 -10 9 -25 14 -33 22 -37 32 -61
32 -74 0 -7 7 -19 15 -26 8 -7 12 -16 9 -21 -3 -5 2 -12 10 -15 9 -4 16 -18
16 -34 0 -17 10 -37 25 -51 13 -13 25 -34 25 -46 0 -13 5 -23 10 -23 6 0 10
-11 10 -25 0 -14 4 -25 9 -25 5 0 11 -8 15 -17 3 -10 9 -25 14 -33 22 -36 52
-103 52 -116 0 -8 7 -17 15 -20 8 -4 15 -17 15 -30 0 -13 5 -24 10 -24 6 0 10
-12 10 -27 -1 -22 -10 -34 -46 -55 -25 -16 -52 -28 -60 -28 -8 0 -17 -7 -20
-15 -4 -8 -13 -15 -22 -15 -8 0 -61 -29 -117 -65 -56 -36 -107 -65 -113 -65
-6 0 -40 -18 -74 -40 -35 -22 -69 -40 -76 -40 -7 0 -51 -25 -97 -55 -47 -30
-92 -55 -99 -55 -7 0 -33 -13 -57 -30 -24 -16 -51 -30 -59 -30 -8 0 -21 -9
-28 -20 -7 -11 -20 -20 -30 -20 -10 0 -27 -7 -39 -15 -31 -22 -175 -95 -187
-95 -5 0 -45 -22 -88 -50 -43 -27 -84 -50 -91 -50 -7 0 -29 -11 -49 -25 -20
-14 -42 -25 -49 -25 -12 0 -104 -55 -213 -127 -27 -17 -66 -35 -87 -38 -22 -4
-39 -12 -39 -20 0 -7 -30 -27 -67 -45 -38 -19 -91 -49 -120 -67 -29 -18 -58
-33 -65 -33 -7 0 -33 -14 -58 -30 -25 -16 -51 -30 -58 -30 -7 0 -20 -4 -30 -9
-9 -5 -25 -12 -34 -15 -19 -6 -25 -41 -8 -51 5 -3 21 2 35 11 30 19 60 20
1380 29 500 4 912 8 915 10 10 6 85 -1 98 -9 8 -5 18 -4 25 3 7 7 62 11 153
11 l142 0 31 -32 c17 -17 31 -40 31 -50 0 -10 5 -18 10 -18 6 0 10 -13 10 -30
0 -16 5 -30 10 -30 6 0 10 -9 10 -20 0 -11 7 -23 15 -26 9 -4 15 -19 15 -35 0
-16 5 -29 10 -29 6 0 10 -9 10 -19 0 -11 5 -23 10 -26 6 -3 10 -14 10 -25 0
-10 6 -20 14 -23 7 -3 12 -16 11 -30 -2 -15 3 -28 11 -31 8 -3 14 -14 14 -25
0 -11 5 -23 10 -26 6 -3 10 -22 10 -41 0 -19 5 -34 10 -34 6 0 10 -8 10 -19 0
-10 7 -24 15 -31 8 -7 15 -23 15 -36 0 -13 5 -24 10 -24 6 0 10 -13 10 -30 0
-16 5 -30 10 -30 6 0 10 -8 10 -19 0 -10 7 -24 15 -31 9 -7 13 -21 10 -31 -4
-12 -1 -21 9 -25 9 -3 16 -14 16 -24 0 -11 5 -22 10 -25 6 -3 10 -17 10 -30 0
-13 5 -27 10 -30 6 -3 10 -17 10 -29 0 -13 7 -29 15 -36 8 -7 15 -23 15 -36 0
-13 3 -24 8 -24 10 0 32 -50 32 -71 0 -10 5 -21 10 -24 6 -3 10 -17 10 -31 0
-13 4 -24 8 -24 9 0 42 -70 42 -88 0 -6 9 -27 20 -47 11 -20 20 -44 20 -54 0
-10 7 -24 15 -31 8 -7 15 -23 15 -36 0 -13 5 -24 10 -24 6 0 10 -11 10 -25 0
-14 5 -25 10 -25 6 0 10 -11 10 -24 0 -14 5 -28 10 -31 6 -3 10 -14 10 -25 0
-10 7 -20 15 -24 8 -3 15 -16 15 -30 0 -14 5 -28 10 -31 6 -3 10 -17 10 -30 0
-13 5 -27 10 -30 6 -3 10 -16 10 -29 0 -12 4 -26 10 -32 5 -5 11 -18 13 -29 1
-11 7 -27 12 -35 23 -35 35 -63 35 -81 0 -10 5 -21 10 -24 6 -3 10 -15 10 -26
0 -10 5 -19 10 -19 6 0 10 -13 10 -29 0 -16 6 -31 15 -35 8 -3 15 -16 15 -30
0 -14 5 -28 10 -31 6 -3 10 -15 10 -26 0 -10 5 -19 10 -19 6 0 10 -13 10 -30
0 -16 5 -30 10 -30 6 0 10 -11 10 -24 0 -14 4 -27 9 -31 14 -8 41 -65 41 -86
0 -10 5 -21 10 -24 6 -3 10 -17 10 -30 0 -13 5 -27 10 -30 6 -3 10 -17 10 -29
0 -13 7 -29 15 -36 8 -7 13 -16 10 -20 -3 -4 2 -13 10 -20 8 -7 15 -23 15 -36
0 -12 5 -26 10 -29 6 -3 10 -15 10 -26 0 -10 5 -19 10 -19 6 0 10 -16 10 -35
0 -19 5 -35 10 -35 6 0 10 -6 10 -14 0 -8 7 -16 15 -20 9 -3 15 -19 15 -41 0
-19 5 -35 10 -35 6 0 10 -9 10 -19 0 -11 5 -23 10 -26 6 -3 10 -15 10 -26 0
-10 5 -19 10 -19 6 0 10 -11 10 -24 0 -14 5 -28 10 -31 6 -3 10 -17 10 -30 0
-13 4 -26 9 -30 13 -7 41 -64 41 -82 0 -7 5 -13 10 -13 6 0 10 -15 10 -33 0
-26 6 -35 28 -45 40 -17 82 3 82 40 0 15 4 29 9 33 13 7 41 64 41 82 0 7 5 13
10 13 6 0 10 14 10 30 0 17 5 30 10 30 6 0 10 14 10 30 0 17 5 30 10 30 6 0
10 9 10 20 0 11 7 23 15 26 8 4 15 14 15 24 0 11 4 22 10 25 6 3 10 18 10 33
0 15 9 38 20 52 11 14 20 39 20 56 0 20 6 34 16 38 9 4 14 13 10 21 -3 9 1 18
9 21 9 4 15 19 15 35 0 16 5 29 10 29 6 0 10 9 10 19 0 11 5 23 10 26 6 3 10
17 10 30 0 12 6 25 14 28 8 3 12 14 10 25 -3 10 2 24 10 31 9 8 16 24 16 37 0
12 4 26 10 29 6 3 10 15 10 26 0 10 5 19 10 19 6 0 10 14 10 30 0 17 5 30 10
30 6 0 10 11 10 24 0 13 7 29 15 36 8 7 15 21 15 31 0 11 5 19 10 19 6 0 10
14 10 30 0 17 5 30 10 30 6 0 10 11 10 24 0 14 4 28 10 31 6 3 10 14 10 25 0
10 7 20 15 24 8 3 15 16 15 30 0 14 4 28 10 31 6 3 10 15 10 26 0 10 5 19 10
19 6 0 10 14 10 30 0 17 5 30 10 30 6 0 10 13 10 29 0 17 6 31 16 35 9 3 14
12 11 20 -3 8 1 22 8 33 8 10 15 28 15 40 0 12 5 25 10 28 6 3 10 15 10 26 0
10 5 19 10 19 6 0 10 11 10 24 0 13 7 29 15 36 8 7 15 21 15 31 0 11 5 19 10
19 6 0 10 14 10 30 0 17 5 30 10 30 6 0 10 11 10 24 0 14 4 28 10 31 6 3 10
15 10 26 0 11 7 22 15 25 9 4 15 19 15 35 0 16 5 29 10 29 6 0 10 9 10 19 0
11 4 23 10 26 6 3 10 17 10 30 0 13 5 27 10 30 6 3 10 15 10 25 0 10 7 25 15
34 8 8 15 19 15 25 0 6 5 11 10 11 6 0 10 14 10 30 0 17 5 30 10 30 6 0 10 14
10 30 0 17 5 30 10 30 6 0 10 11 10 24 0 13 7 29 15 36 8 7 15 21 15 31 0 11
5 19 10 19 6 0 10 14 10 30 0 17 5 30 10 30 6 0 10 8 10 19 0 10 7 24 15 31 8
7 15 23 15 36 0 13 5 24 10 24 6 0 10 13 10 29 0 17 5 33 10 36 6 3 10 14 10
25 0 10 6 20 13 23 9 3 12 16 9 36 -3 22 0 33 12 37 9 3 16 14 16 24 0 11 5
22 10 25 6 3 10 17 10 30 0 13 5 27 10 30 6 3 10 14 10 25 0 10 7 20 15 24 8
3 15 14 15 25 0 11 4 23 10 26 5 3 10 17 10 31 0 13 5 24 10 24 6 0 10 9 10
19 0 11 4 23 10 26 6 3 10 17 10 29 0 13 7 29 15 36 8 7 15 21 15 31 0 11 5
19 10 19 6 0 10 5 10 11 0 30 36 38 173 39 80 0 147 -5 158 -11 12 -6 25 -7
32 -1 7 5 32 8 57 7 25 -2 452 -6 950 -9 1295 -10 1353 -11 1384 -31 28 -19
46 -13 46 14 0 13 -15 24 -47 35 -27 10 -59 24 -73 32 -14 8 -45 25 -70 36
-25 12 -72 38 -106 60 -34 21 -66 38 -73 38 -15 0 -91 50 -91 60 0 4 -16 11
-36 14 -19 4 -91 43 -160 87 -68 43 -130 79 -137 79 -7 0 -29 11 -49 25 -20
14 -43 25 -50 25 -7 0 -31 12 -52 26 -47 32 -203 114 -217 114 -6 0 -35 16
-65 35 -30 19 -61 35 -69 35 -8 0 -23 9 -32 20 -10 11 -22 20 -27 20 -5 0 -31
14 -58 30 -26 16 -53 30 -58 30 -6 0 -50 25 -99 55 -49 30 -94 55 -100 55 -5
0 -39 18 -73 40 -35 22 -68 40 -75 40 -7 0 -58 29 -115 65 -56 36 -110 65
-120 65 -10 0 -18 7 -18 15 0 8 -8 15 -17 15 -10 0 -39 14 -65 30 -49 31 -64
65 -33 76 8 4 15 17 15 30 0 13 5 24 10 24 6 0 10 8 10 18 0 24 29 82 41 82 5
0 9 11 9 25 0 14 5 25 10 25 6 0 10 7 10 16 0 8 7 22 15 31 8 8 13 18 10 23
-3 4 2 13 10 20 8 7 15 21 15 33 0 11 10 28 22 39 12 10 23 29 25 41 5 30 26
77 35 77 5 0 8 11 8 25 0 14 7 28 15 31 8 4 15 17 15 30 0 13 5 24 10 24 6 0
10 9 10 20 0 11 4 20 9 20 5 0 11 8 15 18 3 9 9 24 14 32 22 37 32 61 32 73 0
8 11 26 25 41 14 15 25 36 25 47 0 18 9 39 32 79 5 8 11 23 14 33 4 9 10 17
15 17 5 0 9 9 9 20 0 11 4 20 9 20 5 0 11 8 15 18 3 9 9 24 14 32 23 40 32 61
32 79 0 10 7 22 16 25 8 3 13 10 10 15 -3 5 1 14 9 21 8 7 15 25 15 41 0 16 5
29 10 29 6 0 10 9 10 19 0 10 7 21 15 25 8 3 15 12 15 21 0 8 5 15 10 15 6 0
10 9 10 19 0 10 6 21 14 24 9 4 12 14 9 26 -3 14 0 23 11 27 9 3 16 15 16 25
0 10 5 19 10 19 6 0 10 11 10 24 0 13 7 26 15 30 9 3 15 18 15 36 0 16 5 30
10 30 6 0 10 8 10 18 0 24 29 82 41 82 5 0 9 9 9 20 0 11 5 20 10 20 6 0 10
11 10 24 0 13 7 26 15 30 8 3 15 17 15 31 0 14 5 25 10 25 6 0 10 9 10 19 0
10 7 21 15 25 8 3 15 17 15 31 0 14 5 25 10 25 6 0 10 11 10 25 0 14 4 25 9
25 5 0 12 16 15 35 4 19 11 35 16 35 6 0 10 9 10 20 0 11 5 20 10 20 6 0 10
11 10 25 0 14 7 28 15 31 8 4 15 19 15 34 0 16 5 32 10 35 6 3 10 20 10 36 0
17 6 32 15 35 8 4 15 17 15 30 0 13 5 24 10 24 6 0 10 11 10 25 0 14 7 28 15
31 8 4 15 17 15 30 0 13 5 24 10 24 6 0 10 13 10 29 0 16 7 34 15 41 8 7 15
23 15 36 0 13 5 24 10 24 6 0 10 14 10 31 l0 32 -64 -5 c-35 -3 -77 -12 -92
-20 -175 -88 -280 -145 -347 -186 -37 -23 -73 -42 -80 -42 -6 0 -40 -18 -75
-40 -34 -22 -67 -40 -73 -40 -6 0 -41 -18 -78 -40 -37 -22 -73 -40 -80 -40 -7
0 -32 -14 -57 -31 -25 -17 -69 -41 -99 -55 -30 -13 -91 -46 -136 -74 -44 -27
-85 -50 -91 -50 -6 0 -33 -14 -60 -30 -26 -17 -53 -30 -59 -30 -6 0 -44 -20
-83 -45 -40 -25 -78 -45 -85 -45 -6 0 -42 -19 -79 -41 -37 -23 -80 -49 -97
-57 -16 -8 -48 -24 -70 -35 -22 -11 -59 -33 -83 -48 -24 -16 -49 -29 -57 -29
-8 0 -43 -18 -77 -40 -35 -22 -69 -40 -76 -40 -7 0 -38 -16 -68 -35 -30 -19
-59 -35 -65 -35 -6 0 -37 -16 -69 -35 -32 -19 -64 -35 -71 -35 -8 0 -31 -11
-51 -25 -20 -14 -42 -25 -49 -25 -6 0 -44 -19 -83 -43 -39 -23 -90 -49 -114
-57 -23 -7 -47 -19 -53 -27 -6 -7 -18 -13 -26 -13 -8 0 -27 -8 -41 -19 -45
-31 -132 -81 -143 -81 -6 0 -55 -27 -108 -60 -54 -33 -103 -60 -110 -60 -6 0
-23 -8 -37 -17 -24 -15 -27 -15 -54 0 -15 9 -32 17 -38 17 -5 0 -54 27 -108
60 -54 33 -104 60 -111 60 -6 0 -47 22 -90 50 -43 27 -85 50 -95 50 -9 0 -18
5 -20 11 -2 6 -26 19 -53 28 -28 10 -80 37 -118 59 -37 23 -73 42 -80 42 -6 0
-30 12 -52 25 -22 14 -45 25 -52 25 -6 0 -35 16 -64 35 -30 19 -60 35 -67 35
-8 0 -40 16 -72 35 -32 19 -63 35 -69 35 -6 0 -36 16 -67 36 -31 20 -69 40
-84 44 -16 4 -60 29 -99 54 -38 25 -76 46 -84 46 -8 0 -53 25 -102 55 -48 30
-92 55 -99 55 -6 0 -45 20 -86 45 -41 25 -80 45 -86 45 -5 0 -31 14 -57 30
-26 17 -53 30 -58 30 -6 0 -56 27 -111 60 -54 33 -103 60 -108 60 -4 0 -43 20
-84 45 -42 25 -82 45 -88 45 -6 0 -39 18 -74 40 -35 22 -69 40 -75 40 -6 0
-37 16 -68 34 -31 19 -70 40 -85 46 -16 6 -69 35 -117 65 -49 30 -94 55 -101
55 -6 0 -44 20 -84 45 -39 25 -77 45 -83 45 -7 0 -23 7 -37 16 -14 10 -54 19
-94 22 l-70 5 0 -31z m202 -93 c14 -11 31 -19 37 -19 16 0 80 -34 81 -43 0 -4
-15 -5 -34 -2 -19 4 -44 4 -55 0 -30 -9 -28 -56 4 -86 13 -13 25 -30 25 -36 0
-7 9 -18 20 -25 11 -7 20 -22 20 -34 0 -12 7 -24 15 -28 8 -3 15 -15 15 -26 0
-11 5 -20 10 -20 6 0 10 -11 10 -25 0 -14 4 -25 10 -25 5 0 19 -20 30 -44 11
-25 25 -48 31 -51 6 -4 8 -13 5 -20 -3 -8 2 -19 10 -25 8 -7 14 -21 14 -31 0
-10 5 -21 10 -24 6 -3 10 -17 10 -30 0 -12 7 -25 15 -29 8 -3 15 -12 15 -21 0
-8 5 -15 10 -15 6 0 10 -11 10 -24 0 -13 7 -29 15 -36 8 -7 15 -21 15 -31 0
-10 5 -21 10 -24 6 -3 10 -17 10 -31 0 -13 5 -24 10 -24 6 0 10 -11 10 -24 0
-13 7 -26 15 -30 9 -3 15 -18 15 -36 0 -16 5 -30 10 -30 6 0 10 -9 10 -20 0
-11 4 -20 9 -20 12 0 41 -58 41 -82 0 -11 7 -26 15 -35 8 -8 13 -19 10 -24 -4
-5 -2 -9 4 -9 9 0 23 -25 45 -80 3 -8 10 -22 15 -30 23 -39 51 -103 51 -116 0
-8 7 -17 15 -20 8 -4 15 -14 15 -24 0 -20 27 -77 41 -85 5 -4 9 -13 9 -21 0
-8 9 -24 20 -36 11 -12 20 -29 20 -39 0 -9 7 -22 15 -29 8 -7 15 -25 15 -41 0
-16 5 -29 10 -29 6 0 10 -9 10 -20 0 -11 3 -20 8 -20 7 0 25 -30 38 -62 3 -10
10 -18 15 -18 5 0 9 -11 9 -24 0 -13 7 -29 15 -36 8 -7 15 -22 15 -34 0 -12 9
-32 20 -44 11 -12 20 -30 20 -41 0 -10 7 -21 15 -25 8 -3 15 -17 15 -31 0 -14
5 -25 10 -25 6 0 10 -9 10 -20 0 -11 5 -20 10 -20 6 0 10 -11 10 -25 0 -14 4
-25 9 -25 13 0 41 -59 41 -87 0 -12 4 -23 9 -23 5 0 11 -8 15 -17 3 -10 9 -25
14 -33 24 -41 32 -62 32 -84 0 -13 7 -26 15 -30 8 -3 15 -14 15 -25 0 -11 5
-23 10 -26 6 -3 10 -17 10 -31 0 -13 5 -24 10 -24 6 0 10 -11 10 -24 0 -13 7
-26 15 -30 8 -3 15 -12 15 -20 0 -13 30 -80 52 -116 5 -8 11 -23 14 -32 4 -10
10 -18 15 -18 5 0 9 -11 9 -25 0 -14 5 -25 10 -25 6 0 10 -11 10 -25 0 -14 7
-28 15 -31 8 -4 15 -15 15 -25 0 -11 9 -29 20 -41 11 -12 20 -34 20 -49 0 -15
7 -29 15 -33 9 -3 15 -18 15 -40 0 -25 6 -38 20 -46 11 -6 20 -19 20 -29 0
-10 7 -24 15 -31 8 -7 15 -19 15 -26 0 -8 5 -14 10 -14 6 0 10 -11 10 -23 0
-30 24 -78 50 -102 11 -10 20 -26 20 -36 0 -10 5 -21 10 -24 6 -3 10 -19 10
-36 0 -16 5 -29 10 -29 6 0 10 -7 10 -15 0 -9 7 -18 15 -21 10 -4 15 -19 15
-43 0 -25 7 -42 23 -56 26 -22 25 -65 -1 -65 -19 0 -52 29 -52 45 0 6 -10 22
-22 35 -13 14 -23 28 -23 32 0 4 -6 13 -12 19 -7 7 -13 20 -13 29 0 9 -9 26
-20 38 -11 12 -20 28 -20 37 0 9 -11 26 -25 39 -14 13 -25 34 -25 49 0 14 -4
29 -10 32 -5 3 -10 19 -10 36 0 16 -4 29 -10 29 -5 0 -16 17 -26 38 -30 69
-37 82 -45 82 -5 0 -15 17 -24 38 -9 20 -21 45 -26 54 -5 10 -9 24 -9 32 0 7
-7 19 -15 26 -8 7 -12 16 -9 21 3 5 -6 20 -20 33 -19 16 -26 34 -26 58 0 20
-7 41 -15 48 -8 7 -15 19 -15 26 0 8 -4 14 -10 14 -5 0 -10 11 -10 25 0 14 -4
25 -10 25 -5 0 -10 11 -10 24 0 13 -7 26 -15 30 -8 3 -15 17 -15 31 0 14 -4
25 -8 25 -5 0 -19 20 -32 44 -12 25 -29 47 -36 50 -8 3 -14 12 -14 21 0 8 -4
15 -10 15 -5 0 -10 9 -10 20 0 11 -4 20 -10 20 -5 0 -10 10 -10 23 0 12 -12
33 -26 46 -19 18 -22 26 -12 32 10 7 10 9 1 9 -7 0 -13 9 -13 19 0 10 -7 22
-16 25 -10 4 -14 14 -11 25 3 12 -1 22 -9 25 -8 3 -14 12 -14 19 0 21 -30 77
-42 77 -5 0 -7 7 -4 15 3 9 -1 18 -9 21 -10 4 -15 20 -15 50 0 24 -4 44 -9 44
-20 0 -61 54 -61 81 0 16 -4 29 -10 29 -5 0 -10 7 -10 15 0 9 -11 27 -25 40
-17 15 -22 26 -15 30 7 4 3 14 -12 26 -16 15 -19 22 -10 28 9 5 4 12 -15 21
-15 7 -23 15 -16 17 8 3 9 10 4 21 -27 54 -33 73 -28 91 3 11 -3 28 -14 40
-11 11 -19 29 -19 40 0 11 -4 23 -10 26 -5 3 -10 19 -10 36 0 16 -4 29 -9 29
-13 0 -41 58 -41 85 0 13 -7 25 -15 29 -8 3 -15 17 -15 31 0 14 -4 25 -10 25
-5 0 -10 9 -10 20 0 11 -4 20 -10 20 -5 0 -10 11 -10 25 0 14 -4 25 -9 25 -12
0 -41 57 -41 80 0 10 -7 21 -16 24 -8 3 -12 10 -9 16 3 6 -1 13 -9 16 -10 4
-16 19 -16 40 0 19 -4 34 -10 34 -5 0 -10 11 -10 25 0 14 -4 25 -9 25 -13 0
-41 59 -41 87 0 12 -4 23 -9 23 -12 0 -41 58 -41 82 0 10 -4 18 -10 18 -5 0
-10 7 -10 15 0 9 -7 18 -15 21 -8 4 -15 15 -15 25 0 10 -4 19 -10 19 -5 0 -10
11 -10 25 0 14 -7 28 -16 32 -8 3 -13 11 -10 18 7 18 -5 27 -20 14 -8 -7 -14
-7 -19 1 -3 5 -1 10 4 10 16 0 13 56 -4 70 -8 7 -12 16 -9 21 3 5 -2 12 -10
15 -10 4 -16 19 -16 40 0 19 -4 34 -10 34 -5 0 -10 11 -10 25 0 14 -4 25 -9
25 -12 0 -41 57 -41 80 0 10 -7 20 -15 24 -9 3 -15 18 -15 36 0 16 -4 30 -10
30 -5 0 -10 13 -10 29 0 16 -7 34 -15 41 -8 7 -15 21 -15 31 0 10 -4 21 -10
24 -5 3 -10 15 -10 26 0 18 4 20 33 14 17 -4 44 -16 59 -26z m6128 12 c0 -10
-7 -21 -15 -25 -8 -3 -15 -17 -15 -31 0 -14 -4 -25 -10 -25 -5 0 -10 -16 -10
-35 0 -24 -5 -35 -15 -35 -10 0 -15 -11 -15 -35 0 -19 -4 -35 -10 -35 -5 0
-10 -11 -10 -24 0 -13 -7 -26 -15 -30 -8 -3 -15 -15 -15 -26 0 -11 -4 -20 -10
-20 -5 0 -10 -11 -10 -24 0 -13 -7 -26 -15 -30 -9 -3 -15 -18 -15 -36 0 -16
-4 -30 -10 -30 -5 0 -10 -9 -10 -20 0 -11 -4 -20 -9 -20 -16 0 -19 -60 -3 -69
12 -7 12 -10 1 -16 -7 -5 -14 -4 -17 3 -6 19 -22 14 -22 -8 0 -11 -4 -20 -10
-20 -5 0 -10 -11 -10 -25 0 -14 -7 -28 -15 -31 -8 -4 -15 -15 -15 -25 0 -10
-4 -19 -10 -19 -5 0 -10 -9 -10 -19 0 -10 -7 -21 -15 -25 -8 -3 -12 -12 -9
-19 3 -8 -1 -21 -8 -29 -23 -25 -38 -57 -38 -83 0 -14 -7 -28 -15 -31 -8 -4
-15 -15 -15 -25 0 -10 -4 -19 -10 -19 -5 0 -10 -11 -10 -24 0 -13 -7 -26 -15
-30 -9 -3 -15 -18 -15 -36 0 -16 -4 -30 -10 -30 -5 0 -10 -9 -10 -20 0 -11 -4
-20 -10 -20 -5 0 -10 -11 -10 -25 0 -14 -7 -28 -15 -31 -8 -4 -15 -15 -15 -25
0 -10 -4 -19 -10 -19 -5 0 -10 -11 -10 -25 0 -14 -4 -25 -10 -25 -5 0 -16 -17
-25 -37 -9 -21 -21 -46 -26 -55 -5 -10 -9 -29 -9 -43 0 -14 -7 -28 -15 -31 -8
-4 -15 -15 -15 -25 0 -10 -4 -19 -10 -19 -5 0 -10 -13 -10 -29 0 -16 -6 -31
-15 -35 -8 -3 -15 -15 -15 -26 0 -12 -9 -31 -20 -43 -12 -12 -16 -23 -10 -25
16 -6 12 -49 -5 -56 -8 -3 -15 -17 -15 -31 0 -14 -6 -25 -12 -25 -9 0 -8 -3 2
-10 16 -10 15 -12 -15 -28 -13 -7 -15 -12 -6 -12 10 0 8 -7 -8 -24 -13 -14
-20 -29 -16 -35 3 -6 1 -11 -4 -11 -6 0 -11 -7 -11 -15 0 -8 -4 -15 -10 -15
-5 0 -10 -6 -10 -14 0 -7 -7 -19 -15 -26 -8 -6 -14 -15 -13 -18 3 -25 -6 -44
-31 -68 -20 -18 -31 -41 -36 -71 -3 -23 -10 -43 -16 -43 -5 0 -9 -9 -9 -20 0
-11 -4 -20 -10 -20 -5 0 -10 -9 -10 -19 0 -10 -7 -21 -15 -25 -8 -3 -15 -17
-15 -31 0 -14 -4 -25 -10 -25 -5 0 -10 -11 -10 -25 0 -14 -4 -25 -9 -25 -9 0
-24 -38 -22 -53 1 -4 -8 -17 -19 -29 -11 -12 -20 -27 -20 -33 0 -19 -31 -75
-41 -75 -5 0 -9 -9 -9 -20 0 -11 -4 -20 -8 -20 -5 0 -15 -12 -23 -27 -7 -16
-24 -39 -36 -52 -13 -13 -23 -30 -23 -37 0 -8 -4 -22 -9 -32 -5 -9 -12 -24
-15 -32 -3 -8 -10 -22 -15 -30 -5 -8 -16 -30 -23 -47 -7 -18 -16 -33 -20 -33
-5 0 -8 -19 -8 -43 0 -36 -4 -46 -25 -57 -16 -8 -25 -22 -25 -37 0 -13 -4 -23
-10 -23 -5 0 -10 -11 -10 -25 0 -14 -6 -28 -13 -31 -7 -2 -14 -14 -14 -27 -1
-12 -7 -23 -13 -25 -5 -2 -10 -11 -10 -19 0 -9 -11 -26 -25 -39 -14 -13 -25
-32 -25 -44 0 -11 -4 -20 -10 -20 -5 0 -10 -9 -10 -20 0 -11 -4 -20 -10 -20
-5 0 -10 -13 -10 -29 0 -16 -6 -31 -15 -35 -8 -3 -15 -17 -15 -31 0 -14 -9
-35 -20 -47 -11 -12 -20 -29 -20 -37 0 -9 -11 -28 -25 -43 -14 -15 -25 -36
-25 -48 0 -11 -4 -20 -10 -20 -5 0 -10 -8 -10 -18 0 -10 -9 -24 -21 -32 -11
-8 -27 -30 -36 -47 -11 -24 -22 -33 -39 -33 -33 0 -32 37 1 69 17 16 25 34 25
57 0 19 5 34 10 34 6 0 10 9 10 20 0 11 5 20 10 20 6 0 10 14 10 30 0 18 6 33
15 36 8 4 15 17 15 30 0 13 4 24 9 24 5 0 16 16 25 35 9 19 21 35 26 35 6 0
10 14 10 30 0 17 5 30 10 30 6 0 10 9 10 20 0 11 5 20 10 20 6 0 10 11 10 25
0 17 8 29 25 37 20 9 25 18 25 50 0 21 5 38 10 38 6 0 10 11 10 25 0 15 11 36
25 49 14 13 25 33 25 44 0 11 5 24 10 27 6 3 10 15 10 26 0 11 7 22 15 25 8 4
15 17 15 30 0 13 5 24 10 24 6 0 10 9 10 20 0 11 5 20 10 20 6 0 10 11 10 25
0 14 4 25 9 25 12 0 41 58 41 82 0 10 5 18 10 18 6 0 10 11 10 24 0 13 7 27
16 30 10 4 14 14 11 25 -3 12 1 22 9 25 8 3 14 17 14 31 0 14 5 25 10 25 6 0
10 14 10 30 0 18 6 33 15 36 8 4 15 17 15 30 0 13 5 24 10 24 6 0 10 9 10 20
0 11 4 20 9 20 5 0 12 16 15 35 4 19 11 35 16 35 6 0 10 9 10 20 0 11 5 20 10
20 6 0 10 11 10 25 0 14 4 25 10 25 5 0 16 17 25 38 9 20 21 45 26 54 5 10 9
23 9 30 0 7 11 25 25 40 14 15 25 38 25 52 0 14 5 28 10 31 6 3 10 15 10 26 0
11 7 22 15 25 8 4 15 15 15 25 0 10 5 19 10 19 6 0 10 9 10 20 0 11 5 20 10
20 6 0 10 6 10 14 0 7 7 19 15 26 8 7 15 25 15 41 0 16 5 29 10 29 6 0 10 9
10 20 0 12 11 31 25 44 14 13 25 30 25 38 0 21 30 78 41 78 5 0 9 11 9 25 0
14 5 25 10 25 6 0 10 11 10 24 0 13 7 29 15 36 8 7 12 16 9 21 -3 5 2 12 10
15 9 3 16 17 16 30 0 13 5 24 10 24 6 0 10 11 10 25 0 14 7 28 15 31 8 4 15
15 15 25 0 10 3 19 8 19 8 0 27 42 36 83 4 15 11 27 16 27 6 0 10 9 10 20 0
11 5 20 10 20 6 0 10 7 10 15 0 9 7 18 15 21 9 4 15 19 15 40 0 19 5 34 10 34
6 0 10 11 10 24 0 13 6 26 14 29 9 4 12 14 9 26 -3 14 0 23 11 27 9 3 16 17
16 30 0 13 5 24 10 24 6 0 10 11 10 25 0 14 7 28 15 31 8 4 15 15 15 25 0 10
5 19 10 19 6 0 10 11 10 24 0 13 7 26 15 30 8 3 15 17 15 31 0 14 5 25 10 25
6 0 10 8 10 18 0 24 29 82 41 82 5 0 9 9 9 20 0 11 5 20 10 20 6 0 10 11 10
25 0 14 4 25 9 25 12 0 41 57 41 80 0 9 11 22 25 28 14 6 25 18 25 25 0 7 8
22 19 33 10 12 22 35 25 51 6 26 4 32 -14 38 -12 4 -37 4 -56 0 -43 -8 -44 6
-1 26 149 73 177 81 177 50z m-5952 -104 c15 -8 46 -23 69 -35 23 -12 47 -22
52 -22 6 0 36 -16 67 -36 31 -20 81 -47 111 -60 30 -14 71 -36 91 -49 20 -14
42 -25 48 -25 7 0 45 -20 85 -45 40 -25 79 -45 86 -45 7 0 35 -13 61 -30 27
-16 54 -30 60 -30 5 0 50 -25 99 -55 50 -30 96 -55 104 -55 8 0 31 -11 51 -25
20 -14 44 -25 53 -25 8 0 18 -7 21 -15 4 -8 12 -15 20 -15 14 0 124 -62 163
-92 13 -10 30 -18 39 -18 8 0 37 -13 64 -30 26 -16 55 -30 63 -30 8 0 15 -4
15 -10 0 -5 6 -10 13 -10 7 0 45 -20 85 -45 40 -25 78 -45 86 -45 8 0 16 -3
18 -7 2 -5 35 -23 73 -42 82 -39 78 -37 177 -96 42 -25 82 -45 87 -45 6 0 39
-18 73 -40 35 -22 69 -40 76 -40 7 0 41 -18 76 -40 35 -22 68 -40 74 -40 7 0
34 -13 60 -30 27 -16 56 -30 65 -30 8 0 17 -7 21 -15 3 -8 13 -15 22 -15 9 0
49 -20 88 -45 40 -25 78 -45 85 -45 6 0 37 -16 67 -35 30 -19 63 -35 74 -35
11 0 20 -7 20 -15 0 -8 8 -15 18 -15 10 0 27 -7 38 -15 19 -12 24 -12 40 0 11
8 27 15 37 15 10 0 20 7 23 15 4 8 13 15 21 15 9 0 41 16 73 35 32 19 62 35
68 35 5 0 43 20 83 45 40 25 81 45 91 45 10 0 18 7 18 15 0 9 9 15 24 15 14 0
28 5 32 11 4 6 39 26 78 44 39 18 88 45 109 59 21 14 43 26 49 26 7 0 42 18
79 40 37 22 72 40 78 40 6 0 51 25 99 55 49 30 95 55 102 55 7 0 35 14 62 30
26 17 53 30 58 30 6 0 10 5 10 10 0 6 7 10 16 10 9 0 50 20 91 45 40 25 78 45
83 45 6 0 10 5 10 10 0 6 7 10 16 10 9 0 39 14 66 30 26 17 53 30 59 30 12 0
53 23 136 77 28 18 58 33 66 33 8 0 17 7 21 15 3 8 13 15 23 15 10 0 36 11 58
25 22 13 45 25 51 25 7 0 52 25 101 55 50 30 95 55 101 55 7 0 34 14 60 30 27
17 54 30 60 30 5 0 43 20 83 45 40 25 79 45 87 45 7 0 38 16 68 35 30 19 59
35 64 35 5 0 47 23 94 50 47 28 89 50 95 50 6 0 25 9 43 20 18 11 39 20 46 20
7 0 20 7 28 15 16 16 44 20 44 8 0 -5 -37 -30 -83 -56 -45 -26 -113 -68 -152
-92 -38 -25 -76 -45 -84 -45 -8 0 -49 -22 -92 -50 -43 -27 -84 -50 -91 -50 -7
0 -39 -16 -71 -35 -32 -19 -63 -35 -70 -35 -7 0 -29 -11 -49 -25 -20 -14 -43
-25 -50 -25 -7 0 -75 -38 -151 -85 -76 -47 -143 -85 -150 -85 -7 0 -37 -16
-67 -35 -30 -19 -60 -35 -67 -35 -7 0 -46 -20 -86 -45 -41 -25 -80 -45 -86
-45 -7 0 -37 -16 -67 -35 -30 -19 -60 -35 -67 -35 -7 0 -22 -7 -33 -15 -10 -8
-26 -15 -35 -15 -8 0 -70 -34 -138 -75 -67 -41 -128 -75 -134 -75 -7 0 -35
-15 -62 -33 -77 -50 -125 -77 -138 -77 -7 0 -40 -18 -75 -40 -34 -22 -68 -40
-74 -40 -6 0 -36 -16 -68 -35 -32 -19 -64 -35 -71 -35 -8 0 -41 -18 -74 -40
-33 -22 -66 -40 -74 -40 -7 0 -39 -16 -71 -35 -32 -19 -65 -35 -74 -35 -9 0
-16 -7 -16 -15 0 -8 -9 -15 -20 -15 -11 0 -44 -16 -75 -35 -30 -20 -82 -47
-115 -61 -56 -25 -61 -26 -85 -10 -13 9 -29 16 -36 16 -6 0 -44 20 -83 45 -40
25 -80 45 -88 45 -9 0 -18 7 -22 15 -3 8 -12 15 -21 15 -9 0 -41 16 -71 35
-30 19 -60 35 -66 35 -7 0 -42 18 -79 40 -37 22 -72 40 -78 40 -6 0 -35 16
-65 35 -30 19 -61 35 -68 35 -7 0 -41 18 -76 40 -34 22 -67 40 -73 40 -6 0
-52 25 -103 55 -50 30 -97 55 -104 55 -7 0 -36 15 -65 33 -151 97 -185 117
-198 117 -8 0 -24 7 -35 15 -10 8 -25 15 -33 15 -7 0 -39 16 -71 35 -32 19
-63 35 -69 35 -7 0 -37 16 -68 36 -30 19 -80 46 -110 59 -30 14 -67 33 -83 45
-15 11 -34 20 -41 20 -6 0 -74 38 -151 85 -76 47 -144 85 -151 85 -6 0 -30 12
-52 25 -22 14 -46 25 -53 25 -7 0 -36 16 -65 35 -28 19 -58 35 -65 35 -7 0
-50 23 -96 50 -46 28 -88 50 -94 50 -6 0 -68 36 -139 80 -70 44 -140 86 -155
93 -28 11 -37 27 -17 27 6 0 23 -6 37 -13z m110 -327 c41 -42 64 -112 43 -133
-12 -12 -51 18 -51 40 0 7 -4 13 -10 13 -5 0 -10 14 -10 31 0 18 -7 37 -17 44
-9 7 -14 19 -10 29 9 22 10 21 55 -24z m5512 10 c0 -10 -5 -20 -10 -22 -6 -2
-12 -17 -14 -33 -2 -16 -8 -31 -15 -33 -6 -2 -11 -11 -11 -19 0 -15 -27 -42
-42 -43 -5 0 -8 21 -8 47 0 43 4 52 43 89 43 43 57 47 57 14z m-5272 -182 c7
-7 12 -27 12 -44 0 -18 5 -36 10 -39 6 -3 10 -15 10 -26 0 -10 -4 -19 -10 -19
-5 0 -10 -16 -10 -35 0 -19 -5 -35 -11 -35 -5 0 -8 -4 -4 -9 3 -5 0 -13 -6
-16 -11 -8 -49 27 -49 45 0 6 -6 17 -12 24 -7 8 -23 25 -35 39 l-22 26 26 25
c14 14 34 28 45 32 11 3 17 12 14 19 -9 25 21 34 42 13z m5022 -5 c0 -10 13
-27 29 -37 51 -34 53 -49 16 -92 -18 -21 -31 -42 -29 -46 3 -5 -2 -11 -10 -14
-9 -3 -16 -12 -16 -20 0 -8 -7 -14 -15 -14 -8 0 -15 7 -15 15 0 8 -4 15 -10
15 -5 0 -10 16 -10 35 0 19 -4 35 -10 35 -16 0 -12 37 5 44 9 3 15 18 15 39 0
34 15 57 37 57 7 0 13 -8 13 -17z m-5390 -17 c0 -11 -19 -15 -25 -6 -3 5 1 10
9 10 9 0 16 -2 16 -4z m534 -28 c80 -52 136 -108 136 -139 0 -16 13 -39 35
-62 21 -21 35 -46 35 -60 0 -14 11 -35 25 -48 18 -17 25 -35 25 -61 0 -21 5
-38 10 -38 6 0 10 -7 10 -15 0 -9 7 -18 15 -21 27 -11 18 -64 -17 -95 -17 -16
-39 -31 -49 -34 -20 -7 -82 29 -123 70 -14 14 -30 25 -36 25 -5 0 -10 14 -10
30 0 17 5 30 10 30 6 0 10 9 10 19 0 11 6 22 13 25 8 3 7 8 -5 16 -12 7 -18
23 -18 45 0 19 -4 37 -10 40 -5 3 -10 19 -10 34 0 16 -7 34 -15 41 -8 7 -15
28 -15 46 0 19 -4 34 -10 34 -5 0 -10 9 -10 19 0 10 -7 21 -15 25 -8 3 -15 12
-15 21 0 8 -4 15 -10 15 -5 0 -10 9 -10 20 0 11 -4 20 -10 20 -5 0 -10 7 -10
15 0 23 18 18 74 -17z m4726 22 c0 -6 -7 -13 -15 -16 -8 -4 -15 -15 -15 -25 0
-10 -4 -19 -10 -19 -5 0 -10 -9 -10 -20 0 -11 -4 -20 -10 -20 -5 0 -10 -9 -10
-19 0 -10 -7 -21 -15 -25 -9 -3 -15 -18 -15 -40 0 -19 -4 -38 -10 -41 -5 -3
-10 -19 -10 -35 0 -15 -7 -30 -15 -34 -9 -3 -15 -18 -15 -39 0 -18 -6 -39 -12
-46 -10 -11 -10 -14 0 -18 6 -3 12 -13 12 -24 0 -10 5 -19 10 -19 24 0 9 -50
-22 -71 -18 -13 -37 -28 -43 -35 -5 -6 -27 -21 -48 -34 -38 -22 -39 -22 -73
-4 -19 10 -34 24 -34 31 0 7 -4 13 -10 13 -5 0 -10 16 -10 35 0 19 5 35 10 35
6 0 10 9 10 19 0 10 7 21 15 25 9 3 15 18 15 39 0 19 8 42 20 55 11 12 20 33
20 47 0 14 7 28 15 31 8 4 15 12 15 20 0 8 4 14 8 14 12 0 44 59 38 69 -8 13
83 98 141 132 51 30 73 36 73 19z m480 6 c0 -11 -19 -15 -25 -6 -3 5 1 10 9
10 9 0 16 -2 16 -4z m-5715 -46 c-3 -5 -10 -10 -16 -10 -5 0 -9 5 -9 10 0 6 7
10 16 10 8 0 12 -4 9 -10z m5690 0 c-3 -5 -10 -10 -16 -10 -5 0 -9 5 -9 10 0
6 7 10 16 10 8 0 12 -4 9 -10z m-5231 -95 c9 -19 21 -35 26 -35 6 0 10 -9 10
-19 0 -11 4 -21 9 -23 5 -1 10 -32 13 -67 3 -46 1 -64 -9 -68 -7 -3 -13 -11
-13 -19 0 -27 -33 -14 -76 30 -40 40 -58 86 -34 86 6 0 10 20 10 44 0 25 5 48
10 51 6 3 10 17 10 31 0 36 25 30 44 -11z m4794 10 c-3 -13 0 -26 6 -28 6 -2
9 -23 7 -50 -1 -29 2 -47 8 -47 21 0 11 -53 -15 -76 -14 -13 -29 -24 -35 -24
-5 0 -9 -7 -9 -15 0 -22 -33 -18 -53 5 -19 22 -25 134 -8 145 6 3 22 30 37 60
19 39 32 55 46 55 16 0 19 -5 16 -25z m-4463 -41 c11 -8 27 -14 36 -14 9 0 19
-7 23 -15 3 -8 14 -15 25 -15 10 0 32 -17 47 -37 30 -38 44 -51 94 -93 63 -52
80 -69 80 -85 0 -8 5 -15 10 -15 6 0 10 -7 10 -16 0 -9 11 -27 25 -40 17 -16
25 -34 25 -58 0 -19 5 -38 10 -41 6 -3 10 -17 10 -31 0 -13 -4 -24 -10 -24 -5
0 -10 -11 -10 -25 0 -18 -11 -32 -40 -50 -39 -24 -43 -25 -83 -11 -23 7 -58
17 -77 21 -19 4 -51 19 -72 33 -31 20 -38 30 -38 58 0 19 5 34 10 34 16 0 12
30 -5 36 -10 4 -15 20 -15 50 0 24 -4 44 -10 44 -5 0 -10 13 -10 29 0 16 -7
34 -15 41 -8 7 -15 29 -15 50 0 27 -7 45 -26 63 -14 14 -23 31 -19 37 3 5 2
10 -4 10 -11 0 -41 56 -41 77 0 17 53 9 85 -13z m4175 6 c0 -11 -4 -20 -9 -20
-5 0 -21 -24 -36 -54 -15 -30 -33 -57 -41 -60 -9 -4 -14 -21 -14 -51 0 -25 -4
-45 -10 -45 -5 0 -10 -14 -10 -30 0 -18 -6 -33 -15 -36 -10 -4 -15 -20 -15
-45 0 -22 -6 -49 -12 -60 -10 -17 -10 -23 0 -26 6 -3 12 -19 12 -36 0 -27 -7
-36 -44 -59 -24 -14 -69 -32 -100 -39 -31 -7 -59 -16 -62 -21 -9 -14 -34 -9
-74 18 -28 19 -40 34 -40 50 0 13 -4 24 -10 24 -16 0 -12 46 5 60 8 7 15 28
15 46 0 19 4 34 9 34 5 0 16 16 25 35 9 19 21 35 26 35 6 0 10 8 10 18 0 9 21
35 46 57 87 76 134 123 134 134 0 6 14 14 31 18 17 3 33 12 36 19 3 8 13 14
22 14 9 0 25 6 36 14 19 13 46 22 73 25 6 0 12 -8 12 -19z m-4890 -60 c0 -5
-4 -10 -9 -10 -6 0 -13 5 -16 10 -3 6 1 10 9 10 9 0 16 -4 16 -10z m200 6 c0
-11 -19 -15 -25 -6 -3 5 1 10 9 10 9 0 16 -2 16 -4z m5145 -6 c-3 -5 -10 -10
-16 -10 -5 0 -9 5 -9 10 0 6 7 10 16 10 8 0 12 -4 9 -10z m195 0 c0 -5 -4 -10
-9 -10 -6 0 -13 5 -16 10 -3 6 1 10 9 10 9 0 16 -4 16 -10z m-5325 -20 c3 -5
-1 -10 -10 -10 -9 0 -13 5 -10 10 3 6 8 10 10 10 2 0 7 -4 10 -10z m5100 0 c3
-5 -1 -10 -10 -10 -9 0 -13 5 -10 10 3 6 8 10 10 10 2 0 7 -4 10 -10z m-5045
-61 c0 -7 11 -22 25 -35 14 -13 25 -29 25 -36 0 -8 9 -20 20 -28 11 -8 20 -20
20 -26 0 -6 20 -22 45 -35 25 -13 45 -29 45 -34 0 -6 14 -21 31 -35 18 -14 40
-33 50 -42 46 -44 178 -115 223 -121 26 -4 59 -16 73 -27 14 -11 32 -20 39
-20 23 0 124 -48 124 -59 0 -6 7 -11 15 -11 17 0 137 -72 170 -102 35 -31 149
-144 171 -169 12 -13 33 -33 47 -44 15 -11 26 -25 27 -32 0 -6 4 -13 8 -15 4
-1 20 -30 36 -63 15 -33 31 -68 37 -77 5 -10 9 -34 9 -53 0 -24 8 -45 25 -63
16 -17 25 -38 25 -59 0 -18 5 -33 10 -33 6 0 10 -7 10 -15 0 -17 -46 -65 -63
-65 -7 0 -21 -6 -32 -14 -37 -25 -76 -29 -91 -9 -16 21 -19 83 -4 83 15 0 12
36 -5 50 -18 15 -21 106 -3 112 22 8 -1 36 -51 65 -42 23 -51 33 -51 55 0 21
-9 34 -40 53 -22 14 -46 25 -53 25 -16 0 -87 64 -87 78 0 14 -25 28 -70 37
-42 9 -110 53 -110 71 0 8 -4 14 -10 14 -5 0 -10 7 -10 15 0 10 -10 15 -34 15
-27 0 -40 8 -66 40 -18 22 -44 43 -59 47 -50 12 -91 44 -91 69 0 29 -25 59
-59 69 -32 10 -84 64 -77 81 3 8 -4 19 -17 25 -22 12 -97 84 -97 93 0 3 -16
22 -35 42 -19 19 -35 42 -35 50 0 8 -4 14 -10 14 -5 0 -10 6 -10 14 0 8 -7 16
-15 20 -8 3 -15 12 -15 21 0 8 -4 15 -10 15 -5 0 -10 7 -10 15 0 8 -4 15 -10
15 -5 0 -10 7 -10 15 0 8 7 15 15 15 8 0 15 -5 15 -11z m890 -51 c55 -28 100
-56 100 -62 0 -6 12 -20 25 -31 57 -45 135 -131 135 -149 0 -10 11 -29 25 -42
23 -21 25 -30 25 -108 0 -84 -1 -86 -26 -92 -14 -4 -36 -16 -49 -28 -13 -12
-36 -28 -52 -35 -15 -7 -36 -17 -46 -22 -33 -17 -167 69 -167 107 0 7 6 14 13
17 9 3 12 16 9 36 -2 19 0 31 7 31 14 0 15 96 1 105 -5 3 -10 21 -10 39 0 19
-7 39 -15 46 -8 7 -15 20 -15 29 0 10 -9 27 -20 39 -11 12 -20 26 -20 32 0 6
-11 21 -25 34 -14 13 -25 31 -25 40 0 9 -4 16 -10 16 -5 0 -10 6 -10 14 0 8
-7 17 -16 20 -8 3 -12 11 -8 17 11 18 68 1 174 -53z m3370 52 c0 -6 -11 -23
-25 -38 -14 -15 -25 -32 -25 -39 0 -7 -4 -13 -10 -13 -5 0 -10 -7 -10 -15 0
-8 -4 -15 -10 -15 -5 0 -10 -6 -10 -14 0 -7 -11 -25 -25 -40 -14 -15 -25 -36
-25 -47 0 -10 -4 -19 -10 -19 -5 0 -10 -18 -10 -39 0 -25 -5 -41 -15 -45 -17
-6 -22 -106 -5 -106 6 0 10 -16 10 -35 0 -19 5 -35 10 -35 16 0 12 -28 -7 -50
-31 -37 -120 -82 -140 -72 -94 47 -113 58 -113 67 0 6 -14 15 -32 20 l-31 10
2 84 c2 73 5 87 27 110 13 14 24 33 24 42 0 8 9 25 20 37 11 12 20 26 20 32 0
5 6 10 13 10 6 0 36 25 65 55 53 57 135 115 160 115 8 0 26 8 40 19 40 28 112
41 112 21z m750 0 c0 -6 -11 -21 -25 -34 -14 -13 -25 -29 -25 -36 0 -7 -11
-23 -25 -36 -14 -13 -25 -28 -25 -33 0 -12 -20 -38 -62 -81 -16 -16 -28 -31
-28 -35 0 -9 -32 -39 -62 -58 -16 -10 -28 -26 -28 -36 0 -24 -46 -70 -79 -78
-33 -8 -60 -41 -61 -74 0 -23 -9 -30 -65 -54 -36 -16 -65 -32 -65 -38 0 -18
-51 -57 -76 -57 -25 0 -64 -31 -64 -52 0 -17 -67 -55 -111 -63 -41 -8 -73 -30
-65 -44 4 -5 -4 -15 -16 -22 -13 -7 -29 -20 -36 -31 -7 -10 -20 -18 -28 -18
-24 0 -94 -44 -95 -60 -1 -8 -2 -22 -3 -29 0 -8 -27 -30 -58 -49 -52 -30 -76
-62 -48 -62 6 0 10 -25 10 -55 0 -30 -4 -55 -10 -55 -5 0 -10 -11 -10 -24 0
-14 5 -28 10 -31 17 -11 11 -54 -11 -76 -18 -18 -24 -19 -54 -9 -19 6 -37 16
-40 21 -4 5 -12 9 -20 9 -8 0 -28 13 -46 30 -31 28 -32 30 -16 48 9 10 17 32
17 48 0 17 9 40 21 53 12 12 23 40 26 62 3 22 10 42 14 45 5 3 9 18 9 35 0 16
5 29 10 29 6 0 10 9 10 19 0 10 7 21 15 25 8 3 15 12 15 19 0 8 29 45 65 82
36 37 65 70 65 74 0 4 11 13 24 20 13 7 29 24 36 36 7 13 28 31 46 41 19 10
34 23 34 29 1 12 144 95 165 95 8 0 15 6 15 14 0 7 15 19 33 26 62 23 82 32
118 51 21 10 56 22 80 25 71 12 183 83 285 182 24 23 48 42 53 42 14 0 101 87
101 102 0 7 12 28 28 45 27 32 52 42 52 23z m-3866 -159 c3 -5 22 -12 43 -16
20 -4 46 -13 57 -21 11 -8 33 -14 48 -14 28 0 85 -43 137 -104 14 -15 31 -34
38 -41 7 -8 13 -20 13 -28 0 -9 5 -17 10 -19 6 -2 12 -16 14 -32 2 -15 9 -32
17 -37 12 -8 12 -10 0 -18 -13 -8 -13 -12 -1 -26 11 -13 11 -21 2 -35 -7 -12
-8 -20 -1 -22 5 -2 1 -13 -11 -25 -11 -12 -20 -33 -20 -47 0 -14 -4 -28 -10
-31 -5 -3 -10 -13 -10 -20 0 -8 -8 -24 -17 -36 -78 -92 -92 -99 -194 -99 -74
0 -86 7 -151 88 -27 34 -22 44 36 82 30 19 52 38 49 43 -3 5 4 17 15 28 41 37
55 84 47 154 -3 36 -11 67 -16 70 -5 4 -9 19 -9 34 0 20 -8 34 -25 45 -14 9
-25 21 -25 26 0 9 -6 18 -52 72 -17 20 -16 38 2 38 5 0 11 -4 14 -9z m2716
-10 c0 -4 -16 -24 -35 -44 -19 -20 -35 -42 -35 -50 0 -7 -11 -19 -24 -27 -17
-9 -23 -19 -20 -35 2 -12 -3 -28 -11 -35 -17 -14 -22 -155 -5 -165 6 -3 10
-15 10 -26 0 -10 4 -19 9 -19 5 0 16 -16 25 -35 11 -22 34 -44 66 -62 28 -15
50 -33 50 -40 0 -7 -12 -26 -27 -42 -16 -16 -39 -41 -52 -55 -21 -23 -31 -26
-92 -26 -81 0 -141 21 -159 56 -7 13 -17 24 -22 24 -4 0 -8 6 -8 14 0 8 -7 17
-16 20 -8 3 -13 10 -9 15 3 5 1 12 -5 16 -5 3 -10 20 -10 37 0 20 -9 39 -25
54 -16 15 -20 24 -12 27 8 4 9 8 2 14 -15 12 -13 32 5 43 13 9 13 11 0 21 -11
8 -12 12 -2 16 6 2 12 15 12 27 0 25 27 86 38 86 4 0 18 18 32 39 13 22 34 44
47 50 13 6 23 15 23 21 0 13 54 40 82 40 13 0 33 6 44 14 11 8 37 17 57 21 21
4 40 11 43 16 6 10 24 2 24 -10z m-2244 -266 c16 -14 32 -25 37 -25 4 0 7 -9
7 -20 0 -11 5 -20 10 -20 6 0 10 -14 10 -30 0 -18 6 -33 15 -36 12 -5 15 -26
15 -100 0 -56 -4 -94 -10 -94 -5 0 -10 -7 -10 -15 0 -8 -4 -15 -10 -15 -5 0
-10 -9 -10 -20 0 -11 -4 -20 -10 -20 -5 0 -10 -6 -10 -14 0 -7 -11 -25 -24
-39 -13 -14 -21 -29 -17 -32 3 -4 -1 -12 -9 -18 -9 -7 -27 -28 -40 -47 -33
-48 -37 -50 -105 -50 -34 0 -66 -5 -73 -12 -21 -21 -112 42 -112 77 0 8 -4 15
-10 15 -5 0 -10 7 -10 15 0 8 7 15 15 15 8 0 29 9 47 20 18 11 41 20 51 20 9
0 17 7 17 15 0 8 5 15 11 15 18 0 89 80 89 100 0 10 7 20 15 24 9 3 12 12 8
22 -4 10 0 20 11 26 9 5 13 14 10 20 -4 6 1 17 11 24 10 7 15 20 12 28 -3 8 1
20 10 27 11 9 13 23 9 50 -4 25 -2 39 7 43 9 5 9 7 0 12 -14 6 -18 46 -6 57
11 11 18 8 49 -18z m1792 -61 c1 -43 7 -80 12 -82 6 -2 10 -12 10 -23 0 -10 9
-34 20 -54 11 -20 20 -44 20 -55 0 -11 5 -20 10 -20 6 0 10 -7 10 -15 0 -29
105 -135 133 -135 7 0 26 -9 42 -20 17 -11 38 -20 48 -20 21 0 23 -18 2 -26
-8 -4 -15 -15 -15 -25 0 -10 -4 -19 -10 -19 -5 0 -10 -6 -10 -13 0 -21 -67
-49 -90 -37 -10 5 -43 10 -74 10 -58 0 -86 7 -86 21 0 8 -20 35 -47 64 -7 8
-13 20 -13 27 0 8 -9 24 -20 36 -11 12 -20 28 -20 37 0 8 -4 15 -10 15 -5 0
-10 7 -10 14 0 8 -11 26 -24 41 -22 23 -23 31 -19 113 3 48 9 91 14 97 5 5 9
21 9 36 0 15 7 29 15 33 8 3 14 10 13 15 -4 13 63 72 76 68 6 -2 12 -39 14
-83z m-1552 -105 c48 -30 94 -72 94 -86 0 -7 5 -13 10 -13 6 0 10 -6 10 -14 0
-8 7 -16 15 -20 9 -3 15 -18 15 -36 0 -16 4 -30 9 -30 15 0 -14 -50 -38 -67
-12 -8 -19 -18 -16 -23 6 -10 -127 -100 -148 -100 -6 0 -47 -23 -90 -50 -43
-28 -84 -50 -91 -50 -6 0 -33 -13 -59 -30 -40 -25 -58 -30 -112 -30 -70 0 -92
14 -48 31 15 6 39 17 53 24 100 52 120 66 120 84 0 5 9 13 20 16 11 3 20 13
20 21 0 8 5 14 10 14 6 0 10 9 10 20 0 11 4 20 9 20 5 0 21 25 36 55 14 30 31
55 36 55 6 0 7 5 4 10 -4 6 0 22 9 34 8 13 13 34 11 45 -3 14 4 26 21 37 19
13 24 25 24 60 0 51 13 56 66 23z m1334 -28 c0 -41 4 -51 20 -56 15 -5 20 -15
20 -41 0 -19 5 -34 10 -34 6 0 10 -11 10 -25 0 -14 5 -25 10 -25 6 0 10 -9 10
-20 0 -11 5 -20 10 -20 6 0 10 -9 10 -20 0 -11 5 -20 10 -20 6 0 10 -7 10 -15
0 -8 5 -15 10 -15 6 0 10 -7 10 -16 0 -19 83 -101 126 -126 30 -16 88 -46 113
-58 8 -3 17 -12 19 -18 3 -9 -17 -12 -65 -12 -60 0 -76 4 -116 30 -26 17 -52
30 -57 30 -6 0 -46 23 -90 50 -44 28 -85 50 -91 50 -24 0 -149 86 -149 102 0
9 -9 20 -20 23 -11 3 -20 15 -20 25 0 10 -6 20 -12 23 -10 4 -10 7 0 18 6 7
12 24 12 37 0 14 10 34 23 46 13 12 22 27 19 34 -2 6 8 17 22 23 14 7 26 16
26 20 0 14 74 59 97 59 21 0 23 -5 23 -49z m-854 -144 c-11 -7 -30 -22 -43
-34 -13 -13 -29 -23 -36 -23 -7 0 -35 -15 -63 -34 -29 -18 -64 -36 -79 -40
-15 -4 -36 -17 -48 -29 -12 -13 -62 -43 -112 -67 -49 -24 -111 -57 -136 -72
-25 -15 -51 -28 -57 -28 -7 0 -36 -16 -66 -35 -30 -19 -60 -35 -67 -35 -6 0
-51 -25 -99 -55 -48 -30 -91 -55 -97 -55 -5 0 -53 -27 -106 -60 -54 -33 -113
-66 -132 -74 -18 -8 -58 -30 -89 -50 -31 -20 -61 -36 -66 -36 -5 0 -32 -13
-60 -30 -28 -16 -55 -30 -60 -30 -5 0 -31 -13 -57 -30 -26 -16 -54 -30 -62
-30 -8 0 -22 -7 -32 -16 -11 -10 -25 -13 -38 -9 -24 7 -28 25 -6 25 8 0 43 18
77 40 35 22 74 40 88 40 14 0 36 9 50 20 14 11 31 20 39 20 8 0 54 25 103 55
48 30 94 55 101 55 6 0 39 18 72 40 33 22 67 40 76 40 9 0 27 8 40 18 43 33
226 142 237 142 7 0 43 20 82 45 39 25 75 45 80 45 5 0 32 14 58 30 27 17 55
30 63 30 7 0 29 11 48 24 76 51 127 81 156 91 17 6 62 31 100 56 98 64 107 68
135 68 24 0 24 -1 6 -12z m439 -52 c56 -36 107 -65 113 -65 7 0 52 -25 100
-55 49 -30 94 -55 101 -55 7 0 32 -13 56 -30 24 -16 50 -30 58 -30 7 0 45 -20
83 -45 38 -24 74 -45 81 -45 6 0 69 -36 141 -80 71 -44 134 -80 140 -80 6 0
31 -14 56 -30 24 -17 61 -37 81 -46 21 -8 73 -37 117 -65 44 -27 85 -49 91
-49 7 0 26 -9 42 -20 17 -11 40 -20 52 -20 13 0 48 -16 79 -36 31 -20 69 -40
83 -44 l26 -7 -23 -12 c-19 -10 -28 -10 -47 3 -14 9 -29 16 -34 16 -6 0 -32
14 -58 30 -26 17 -53 30 -61 30 -7 0 -33 14 -57 30 -24 17 -50 30 -58 30 -7 0
-45 20 -83 45 -38 24 -74 45 -81 45 -6 0 -58 29 -115 65 -57 36 -109 65 -116
65 -7 0 -45 21 -85 47 -40 26 -85 52 -102 58 -16 6 -52 25 -80 43 -27 17 -56
32 -62 32 -7 0 -37 16 -67 35 -30 19 -61 35 -68 35 -7 0 -33 14 -58 30 -25 16
-52 30 -60 30 -8 0 -33 16 -54 35 -22 19 -46 35 -53 35 -8 0 -39 16 -69 35
-30 19 -60 35 -66 35 -6 0 -18 7 -27 15 -9 8 -27 24 -41 35 l-25 19 24 1 c13
0 70 -29 126 -65z m-705 -205 c0 -27 -4 -52 -10 -55 -5 -3 -10 -17 -10 -31 0
-13 -4 -24 -8 -24 -5 0 -15 -11 -22 -25 -13 -24 -87 -75 -110 -75 -6 0 -28
-11 -48 -25 -20 -14 -49 -25 -63 -25 -15 0 -29 -6 -32 -14 -3 -8 -28 -16 -61
-20 -31 -4 -80 -16 -110 -27 -57 -19 -143 -17 -157 4 -9 13 59 76 91 84 14 3
63 30 110 59 47 30 94 54 103 54 9 0 17 7 17 15 0 8 12 17 28 21 15 3 54 24
88 45 33 22 67 39 75 39 8 0 34 13 58 29 25 17 48 28 53 25 4 -3 8 -27 8 -54z
m983 -15 c43 -22 83 -45 89 -52 6 -7 19 -13 29 -13 11 0 28 -9 39 -20 11 -11
24 -20 29 -20 5 0 45 -23 88 -50 43 -28 85 -53 93 -56 74 -26 129 -71 116 -93
-3 -5 -28 -11 -55 -15 -37 -5 -61 -2 -98 13 -26 10 -76 22 -111 26 -40 4 -65
12 -69 21 -3 8 -16 14 -29 14 -13 0 -40 11 -60 25 -20 14 -43 25 -51 25 -39 0
-133 90 -133 127 0 13 -4 23 -10 23 -11 0 -14 103 -4 113 4 4 19 -2 33 -12 14
-10 61 -35 104 -56z m-503 -73 c28 -14 34 -22 32 -41 -2 -13 2 -28 10 -32 11
-8 11 -11 -1 -18 -14 -9 -7 -31 10 -31 15 0 39 26 39 42 0 7 8 18 19 25 15 10
23 7 50 -18 18 -16 40 -29 49 -28 11 0 12 3 5 6 -7 2 -13 13 -13 24 0 10 -4
19 -10 19 -5 0 -10 14 -10 30 0 25 4 30 24 30 13 0 29 -7 36 -15 9 -10 17 -12
30 -5 14 8 21 4 34 -15 9 -13 16 -30 16 -37 0 -7 9 -24 20 -38 11 -14 20 -30
20 -37 0 -7 10 -18 22 -24 21 -11 21 -12 -10 -25 -24 -10 -32 -19 -32 -39 0
-14 5 -25 12 -25 9 0 9 -3 -1 -12 -10 -11 -17 -8 -34 13 -22 26 -57 49 -75 49
-16 0 -20 -69 -5 -74 16 -7 18 -102 2 -112 -20 -12 -50 37 -45 73 3 21 0 33
-10 37 -8 3 -14 12 -14 21 0 23 -25 18 -38 -7 -6 -13 -13 -36 -14 -53 -2 -19
-9 -30 -18 -30 -11 0 -15 12 -15 45 0 42 -2 45 -27 48 -20 2 -28 -1 -28 -12 0
-9 -4 -16 -10 -16 -5 0 -10 -11 -10 -25 0 -22 -4 -25 -32 -25 -31 1 -32 2 -14
15 17 13 17 17 5 31 -11 13 -11 18 -1 21 26 9 10 22 -28 21 -39 0 -53 -11 -27
-21 9 -4 8 -8 -3 -16 -12 -9 -13 -14 -2 -31 11 -18 10 -20 -13 -20 -18 0 -25
5 -25 20 0 28 -30 60 -57 60 -19 0 -22 -6 -25 -47 -3 -53 -21 -65 -26 -18 -1
17 -8 40 -14 53 -14 28 -48 30 -48 2 0 -11 -4 -20 -10 -20 -5 0 -10 -18 -10
-40 0 -22 -4 -40 -10 -40 -5 0 -10 -7 -10 -16 0 -9 -6 -14 -12 -12 -16 6 -23
97 -9 111 6 6 11 26 11 44 0 45 -28 44 -77 -2 -38 -36 -53 -43 -53 -25 0 6 5
10 10 10 17 0 11 42 -7 56 -10 7 -27 14 -38 14 -17 0 -16 3 8 18 15 9 27 23
27 30 0 7 9 22 20 34 11 12 20 32 20 45 0 13 5 23 10 23 6 0 10 7 10 15 0 17
16 20 25 6 3 -6 17 -3 34 6 15 9 35 14 44 10 22 -8 22 -43 0 -56 -10 -5 -15
-13 -11 -17 5 -4 3 -13 -3 -21 -23 -28 16 -13 44 17 24 25 31 28 48 17 10 -6
19 -16 19 -20 0 -5 8 -20 19 -33 17 -21 20 -22 32 -8 10 13 10 17 -2 26 -11 7
-11 11 -1 15 6 2 12 18 12 34 0 19 6 31 18 35 9 3 24 9 32 14 24 14 72 10 110
-8z m-859 -272 c25 -14 24 -24 -6 -40 -14 -7 -25 -18 -25 -24 0 -16 38 -38 45
-26 3 6 16 10 28 10 23 0 83 19 104 33 26 17 98 19 118 3 15 -12 16 -15 5 -16
-13 0 -13 -1 0 -11 11 -8 12 -12 3 -16 -19 -7 -16 -79 4 -103 31 -36 83 -15
83 33 0 27 24 47 54 47 10 0 16 -9 16 -25 0 -14 6 -28 14 -31 7 -3 24 -26 37
-52 13 -26 38 -61 56 -78 18 -18 33 -41 33 -53 0 -27 38 -71 62 -71 13 0 18 8
18 29 0 17 5 33 10 36 6 3 10 27 10 53 1 43 17 82 35 82 4 0 18 -9 32 -20 33
-26 77 -25 120 1 l34 21 21 -21 c15 -17 19 -33 16 -66 -2 -30 1 -46 9 -50 7
-2 13 -18 13 -35 0 -20 5 -30 15 -30 19 0 66 51 64 70 -3 30 1 39 20 45 11 3
26 21 36 40 9 19 20 35 25 35 6 0 10 7 10 15 0 9 9 25 20 37 11 12 20 30 20
40 0 25 26 33 55 18 19 -10 23 -19 19 -37 -5 -17 -1 -28 12 -38 24 -17 46 -14
70 10 21 20 27 85 10 98 -8 5 -7 10 3 16 11 7 11 9 0 14 -12 5 -11 7 1 17 16
12 104 7 124 -8 15 -11 73 -29 119 -37 48 -8 63 18 27 45 -21 16 -22 20 -10
35 13 16 61 13 85 -5 6 -4 24 -10 40 -14 17 -4 46 -14 65 -23 19 -9 41 -19 48
-22 29 -13 14 -26 -33 -29 -66 -4 -75 -15 -41 -48 31 -32 31 -58 -2 -62 -22
-3 -30 -26 -12 -37 15 -9 13 -85 -2 -85 -9 0 -8 -4 2 -10 13 -8 11 -11 -7 -16
-13 -4 -23 -14 -23 -25 0 -10 -8 -22 -17 -28 -15 -8 -16 -13 -6 -30 11 -18 9
-22 -17 -37 -20 -13 -30 -27 -32 -48 -2 -25 -9 -33 -35 -41 -22 -6 -33 -15
-33 -27 0 -10 -4 -18 -9 -18 -5 0 -11 -9 -14 -20 -3 -14 -14 -20 -31 -20 -14
0 -35 9 -46 20 -11 11 -29 20 -40 20 -11 0 -29 -9 -40 -20 -28 -28 -50 -25
-111 15 -30 19 -58 34 -64 32 -14 -5 -19 -47 -6 -60 14 -14 14 -47 1 -47 -5 0
-10 -10 -10 -22 0 -12 -15 -35 -33 -52 -18 -17 -40 -46 -48 -63 -7 -18 -17
-33 -21 -33 -5 0 -8 -9 -8 -20 0 -32 28 -35 55 -6 13 14 29 26 35 26 5 0 10 7
10 15 0 10 10 15 30 15 16 0 51 14 77 30 26 17 52 30 59 30 7 0 32 11 55 25
24 14 54 25 67 25 45 0 122 33 159 66 20 19 43 34 50 34 8 0 27 16 44 35 17
19 39 37 50 40 13 4 19 15 19 36 0 17 6 32 15 35 8 4 15 15 15 25 0 10 5 19
10 19 6 0 10 9 10 20 0 24 22 26 40 4 8 -8 25 -14 39 -12 34 4 40 44 11 75
-11 12 -20 27 -20 33 0 5 -4 10 -9 10 -6 0 -22 11 -37 25 -21 20 -25 31 -21
54 4 17 2 33 -3 36 -20 12 -9 24 30 35 35 10 40 14 40 41 0 17 6 32 15 35 8 4
15 11 15 16 0 12 39 48 51 48 4 0 10 -4 13 -9 3 -4 18 -11 34 -14 37 -7 82
-53 82 -83 0 -13 4 -24 9 -24 5 0 16 -16 25 -35 15 -32 41 -59 120 -130 40
-35 140 -95 159 -95 23 0 43 -28 29 -42 -7 -7 -12 -22 -12 -35 0 -13 -4 -23
-10 -23 -5 0 -10 -14 -10 -30 0 -18 -6 -33 -15 -36 -8 -4 -15 -15 -15 -25 0
-10 -4 -19 -10 -19 -5 0 -10 -11 -10 -25 0 -14 -4 -25 -10 -25 -5 0 -10 -9
-10 -20 0 -11 -4 -20 -10 -20 -5 0 -10 -7 -10 -15 0 -24 -30 -33 -96 -27 -55
4 -64 2 -64 -12 0 -9 -4 -16 -10 -16 -5 0 -10 -11 -10 -25 0 -16 -6 -25 -15
-25 -8 0 -15 7 -15 16 0 18 -27 43 -47 44 -15 0 -17 -46 -3 -55 6 -4 10 -56
10 -124 0 -93 -3 -121 -15 -131 -8 -7 -15 -16 -15 -21 0 -12 -28 -47 -72 -90
-21 -20 -38 -41 -38 -47 0 -6 -10 -17 -22 -23 -13 -7 -33 -21 -45 -33 -50 -48
-60 -56 -71 -56 -5 0 -12 -4 -14 -9 -2 -6 -102 -11 -241 -12 l-239 -2 -45 47
c-25 26 -43 50 -40 53 3 3 27 4 54 3 142 -6 253 -2 293 9 55 16 138 57 165 82
92 85 125 106 125 78 0 -15 26 -39 42 -39 7 0 19 4 27 9 11 7 10 13 -8 32 -11
12 -21 26 -21 31 0 4 -25 8 -56 8 -50 0 -59 -3 -89 -34 -18 -19 -37 -41 -42
-49 -13 -23 -103 -72 -155 -85 -58 -15 -122 -16 -113 -2 3 6 23 10 44 10 43 0
114 41 173 101 21 21 43 39 48 39 6 0 10 9 10 20 0 15 7 20 25 20 14 0 25 4
25 10 0 23 67 89 133 131 26 17 47 35 47 40 0 6 9 19 20 31 16 17 20 36 20 85
0 40 -4 63 -11 63 -7 0 -10 12 -7 30 2 16 0 31 -5 33 -12 4 14 47 28 47 5 0
28 5 50 11 35 10 37 13 22 24 -17 12 -63 3 -132 -25 -11 -5 -28 -11 -37 -14
-23 -7 -23 -17 2 -44 21 -22 27 -62 10 -62 -5 0 -18 -19 -29 -43 -21 -46 -70
-81 -131 -92 -19 -3 -107 -10 -195 -15 -160 -9 -268 -21 -315 -34 -41 -12 -70
-28 -64 -38 3 -4 1 -8 -5 -8 -19 0 -61 -47 -61 -68 0 -12 -7 -25 -17 -30 -10
-6 -14 -16 -10 -26 4 -10 1 -19 -8 -22 -8 -4 -15 -17 -15 -30 0 -13 -4 -24
-10 -24 -5 0 -10 -7 -10 -15 0 -8 -4 -15 -9 -15 -14 0 -22 -143 -8 -152 7 -4
12 -17 12 -28 0 -11 6 -25 14 -29 7 -5 10 -14 7 -20 -9 -14 -542 -16 -551 -1
-3 5 -1 18 5 30 5 11 15 29 20 40 6 11 10 50 10 86 0 58 -3 70 -25 90 -14 13
-25 32 -25 44 0 11 -4 20 -10 20 -5 0 -10 11 -10 25 0 14 -4 25 -10 25 -5 0
-10 11 -10 24 0 15 -17 39 -49 69 -52 47 -108 67 -191 67 -21 0 -42 5 -45 10
-3 6 -50 10 -103 10 -53 1 -140 5 -192 9 -120 11 -174 39 -207 110 -24 50 -29
81 -13 81 6 0 10 6 10 14 0 8 6 17 13 19 18 8 -7 23 -72 42 -31 9 -64 21 -74
26 -12 6 -25 6 -39 -2 -25 -13 -14 -22 42 -34 38 -8 83 -46 62 -53 -7 -2 -12
-17 -12 -32 0 -16 -4 -32 -10 -35 -5 -3 -10 -31 -10 -61 0 -46 4 -59 25 -78
14 -13 25 -30 25 -37 0 -8 23 -27 50 -44 28 -16 60 -42 72 -58 40 -52 67 -77
83 -77 8 0 15 -8 15 -18 0 -10 15 -26 34 -36 18 -10 39 -28 45 -39 17 -32 116
-87 156 -87 19 0 37 -5 41 -12 13 -21 -113 -2 -171 26 -48 24 -135 98 -135
116 0 13 -51 30 -91 30 -39 0 -69 -17 -69 -39 0 -6 -4 -11 -10 -11 -18 0 -10
-19 11 -25 15 -5 26 1 43 20 23 27 23 27 52 9 16 -11 42 -33 59 -50 46 -46
125 -91 175 -98 24 -4 50 -11 56 -17 8 -6 51 -8 111 -5 158 8 184 8 190 2 4
-3 -8 -20 -25 -37 -18 -17 -32 -35 -32 -39 0 -4 -8 -11 -17 -15 -27 -11 -477
-5 -481 6 -2 5 -11 9 -19 9 -9 0 -30 15 -47 33 -17 18 -46 42 -63 52 -18 11
-33 27 -33 36 0 10 -9 21 -20 24 -11 3 -20 10 -20 14 0 4 -16 24 -35 44 -19
20 -35 43 -35 52 0 8 -4 15 -9 15 -14 0 -26 243 -12 248 6 2 11 19 11 39 l0
34 -30 -21 c-16 -12 -29 -26 -27 -33 1 -7 -5 -12 -13 -12 -8 0 -15 9 -15 20 0
11 -8 28 -19 39 -15 15 -29 18 -75 14 -67 -6 -81 -2 -81 23 0 10 -4 19 -10 19
-5 0 -10 9 -10 19 0 10 -7 21 -15 25 -8 3 -15 12 -15 20 0 9 -9 31 -20 51 -11
20 -20 46 -20 59 0 13 -7 26 -15 30 -8 3 -15 14 -15 24 0 10 -6 24 -13 31 -10
10 -8 15 7 27 11 8 26 14 33 14 15 0 117 64 151 94 75 67 122 115 122 125 0 7
9 21 20 33 11 12 20 31 20 42 0 26 45 64 95 82 36 12 65 10 65 -5 0 -4 9 -17
19 -28 11 -11 21 -33 23 -48 3 -28 8 -33 63 -55 17 -7 24 -15 18 -17 -7 -3
-13 -20 -13 -39 0 -33 -25 -69 -91 -131 -23 -22 -13 -73 15 -73 11 0 30 7 40
15 29 22 34 19 53 -25 10 -22 21 -40 25 -40 5 0 8 -13 8 -30 0 -21 8 -34 28
-47 35 -22 62 -49 62 -63 0 -5 9 -10 19 -10 11 0 31 -10 45 -23 14 -13 42 -31
63 -42 21 -10 46 -22 55 -26 10 -5 31 -9 48 -9 17 0 76 -24 135 -55 58 -30
115 -55 127 -55 12 0 39 -18 60 -40 42 -43 46 -44 67 -31 12 8 12 15 -3 45 -9
20 -21 36 -26 36 -6 0 -10 9 -10 20 0 11 -4 20 -10 20 -16 0 -50 43 -50 62 0
10 -7 21 -15 24 -17 7 -21 44 -5 44 6 0 10 16 10 35 0 19 -4 35 -9 35 -5 0
-33 -16 -62 -35 -61 -40 -93 -44 -111 -15 -19 29 -88 25 -88 -6 0 -9 -12 -14
-35 -14 -28 0 -35 4 -35 19 0 10 -7 21 -15 25 -8 3 -15 12 -15 21 0 8 -8 15
-18 15 -25 0 -42 20 -42 50 0 19 -9 30 -34 44 -31 16 -33 21 -23 39 9 15 9 21
0 24 -7 3 -13 16 -13 29 0 17 -6 24 -19 24 -11 0 -23 5 -26 10 -3 6 -1 10 6
10 10 0 10 3 1 12 -15 15 -16 74 -2 83 18 11 11 35 -10 35 -13 0 -20 7 -20 18
0 10 9 28 20 40 36 38 27 52 -35 52 -42 0 -55 4 -55 15 0 8 12 18 28 21 15 4
32 10 37 15 8 6 143 54 163 58 2 1 12 -4 23 -9z m-1187 -366 c9 -3 16 -10 16
-14 0 -10 -96 -70 -111 -70 -5 0 -45 -22 -88 -50 -43 -27 -84 -50 -92 -50 -8
0 -37 -15 -64 -33 -28 -19 -72 -45 -100 -59 -96 -47 -230 -120 -239 -129 -6
-5 -17 -9 -25 -9 -9 0 -36 -14 -61 -30 -25 -16 -52 -30 -61 -30 -9 0 -28 -11
-43 -25 -15 -14 -31 -25 -36 -25 -5 0 -38 -18 -72 -40 -35 -22 -69 -40 -76
-40 -7 0 -30 -11 -50 -25 -20 -14 -42 -25 -49 -25 -7 0 -51 -25 -98 -55 -46
-30 -90 -55 -97 -55 -6 0 -62 -31 -124 -70 -61 -38 -118 -70 -125 -70 -8 0
-25 -9 -39 -20 -14 -11 -32 -20 -40 -20 -9 0 -25 -6 -36 -14 -11 -8 -36 -17
-55 -21 -19 -4 -40 -15 -47 -25 -9 -15 -7 -21 12 -34 20 -12 55 -15 188 -14
89 1 408 2 708 3 300 0 547 2 550 3 3 2 339 4 747 6 564 3 746 6 757 16 9 7
21 8 28 4 16 -11 1575 -13 1604 -3 11 4 28 2 38 -3 21 -12 1164 -23 2040 -20
296 1 543 -1 549 -5 17 -10 328 -2 353 9 13 6 24 14 24 17 -1 17 -30 40 -56
47 -30 7 -51 16 -121 52 -23 12 -47 22 -52 22 -6 0 -60 32 -121 70 -61 39
-116 70 -123 70 -7 0 -35 15 -62 33 -74 48 -125 77 -136 77 -6 0 -27 11 -47
25 -20 14 -42 25 -48 25 -7 0 -42 18 -78 40 -36 22 -68 40 -71 40 -3 0 -16 9
-28 20 -12 12 -33 24 -47 27 -13 3 -45 19 -69 35 -25 15 -49 28 -54 28 -6 0
-32 14 -59 30 -26 17 -53 30 -60 30 -6 0 -39 18 -74 40 -35 22 -69 40 -76 40
-7 0 -44 21 -82 45 -38 25 -74 45 -81 45 -6 0 -46 23 -90 50 -44 28 -85 50
-92 50 -8 0 -36 15 -63 33 -38 26 -47 36 -38 45 17 17 29 15 58 -8 14 -11 32
-20 40 -20 8 0 46 -21 84 -45 38 -25 75 -45 82 -45 8 0 44 -20 81 -44 37 -24
84 -50 104 -59 19 -8 55 -27 79 -42 24 -15 49 -28 55 -29 7 -1 51 -25 98 -54
46 -29 90 -52 97 -52 8 0 21 -6 29 -14 9 -8 51 -32 94 -54 43 -23 110 -61 151
-86 40 -26 78 -46 84 -46 6 0 33 -14 59 -30 26 -16 51 -30 57 -30 5 0 42 -20
82 -45 39 -25 77 -45 83 -45 11 0 97 -51 180 -107 19 -13 40 -23 48 -23 8 0
41 -18 73 -40 32 -22 66 -40 74 -40 8 0 38 -16 67 -35 30 -19 62 -35 72 -35
10 0 16 -4 13 -8 -3 -5 6 -15 19 -22 l25 -14 -37 -13 c-21 -7 -44 -10 -52 -8
-8 3 -487 8 -1065 12 -578 3 -1096 7 -1151 8 -232 6 -1294 5 -1336 -1 -27 -4
-54 -2 -67 5 -14 8 -23 8 -27 1 -5 -8 -11 -8 -20 0 -9 8 -15 8 -20 0 -4 -7
-12 -7 -25 0 -22 12 -73 13 -84 3 -10 -11 -156 -12 -162 -2 -7 13 -72 11 -79
-1 -4 -7 -11 -7 -18 -2 -14 10 -57 9 -75 -1 -6 -4 -46 -5 -89 -2 -74 5 -1093
5 -1313 0 -58 -1 -576 -5 -1151 -8 -575 -4 -1054 -9 -1064 -13 -10 -4 -26 -2
-36 4 -10 7 -26 12 -35 12 -13 0 -11 6 10 25 15 14 31 25 36 25 5 0 34 16 64
35 30 19 60 35 67 35 6 0 40 18 75 40 35 22 68 40 74 40 6 0 53 27 104 59 51
33 108 66 127 74 19 8 60 30 91 50 31 21 63 37 70 37 7 0 27 9 43 21 17 11 53
31 81 43 28 13 82 44 121 70 39 25 76 46 84 46 8 0 41 18 74 40 33 22 65 40
72 40 7 0 48 23 91 50 43 28 84 50 91 50 6 0 40 18 75 40 35 22 68 40 75 40 6
0 47 23 91 50 44 28 84 50 90 50 5 0 41 20 80 45 39 25 76 45 83 45 6 0 26 9
42 20 35 23 29 22 49 14z m154 -191 c2 -12 10 -27 18 -33 8 -7 14 -20 14 -29
0 -10 9 -27 20 -39 11 -12 20 -29 20 -38 0 -9 11 -27 25 -40 14 -13 25 -30 25
-39 0 -8 5 -15 10 -15 6 0 10 -9 10 -19 0 -20 -43 -42 -110 -56 -19 -4 -51
-18 -70 -31 -19 -13 -40 -24 -48 -24 -7 0 -41 -18 -76 -40 -35 -22 -70 -40
-79 -40 -9 0 -19 -4 -22 -10 -3 -5 -25 -14 -48 -20 -23 -6 -49 -14 -57 -17 -8
-4 -17 -7 -20 -8 -3 -1 -12 -4 -20 -8 -8 -3 -35 -11 -60 -17 -25 -6 -54 -15
-65 -19 -27 -12 -233 -41 -325 -46 -164 -8 -371 -50 -455 -91 -57 -28 -74 -47
-64 -71 5 -14 17 -23 29 -23 35 0 124 36 183 74 32 19 76 39 100 42 23 4 48
12 56 18 9 7 113 13 295 17 169 4 299 11 326 18 25 7 70 16 100 21 72 10 99
19 132 42 14 10 31 18 38 18 18 0 90 44 90 56 0 11 42 34 63 34 7 0 29 18 49
39 35 39 67 61 87 61 5 0 17 -17 26 -37 9 -21 21 -46 26 -55 5 -10 9 -26 9
-37 0 -10 7 -21 15 -25 8 -3 15 -12 15 -21 0 -8 5 -15 10 -15 6 0 10 -9 10
-20 0 -11 5 -20 10 -20 6 0 10 -11 10 -24 0 -13 7 -26 15 -30 17 -6 20 -32 6
-41 -16 -9 -75 30 -89 58 -8 16 -21 27 -33 27 -26 0 -37 -30 -16 -42 10 -5 17
-16 17 -23 0 -8 5 -15 10 -15 6 0 10 -7 10 -15 0 -8 5 -15 10 -15 6 0 10 -15
10 -34 0 -45 -22 -52 -68 -24 -62 38 -72 53 -72 109 0 71 -24 61 -28 -12 -2
-30 -7 -58 -13 -63 -5 -6 -9 -20 -9 -32 0 -25 -27 -38 -54 -28 -9 3 -16 14
-16 24 0 10 -7 21 -16 24 -10 4 -15 16 -14 33 3 44 1 48 -15 27 -8 -10 -15
-30 -15 -44 0 -27 -42 -60 -74 -60 -18 0 -22 35 -6 45 11 7 4 25 -10 25 -13 0
-60 -45 -60 -57 0 -10 -43 -33 -60 -33 -15 0 -12 88 3 93 6 2 9 7 6 11 -8 9
-59 -14 -59 -26 0 -5 -7 -16 -15 -24 -8 -8 -18 -21 -22 -29 -5 -8 -27 -17 -51
-21 -42 -7 -42 -6 -42 24 0 17 5 34 10 37 17 10 11 25 -10 25 -11 0 -20 -5
-20 -12 0 -31 -82 -78 -136 -78 -21 0 -17 28 6 35 26 8 25 22 -2 31 -14 4 -25
1 -33 -10 -7 -9 -20 -16 -29 -16 -9 0 -16 -7 -16 -15 0 -9 -9 -15 -25 -15 -14
0 -25 5 -25 10 0 6 5 10 10 10 6 0 10 5 10 10 0 6 -13 10 -29 10 -17 0 -33 -4
-36 -10 -9 -14 -42 -12 -48 3 -3 9 -15 6 -45 -10 -48 -27 -52 -28 -52 -8 0 21
-27 19 -57 -5 -31 -24 -81 -26 -97 -4 -11 15 -15 14 -47 -5 -28 -17 -50 -21
-124 -21 -55 0 -96 -5 -102 -11 -9 -9 -34 -9 -101 0 -48 6 -118 11 -155 11
-60 0 -67 2 -67 20 0 11 4 20 8 20 5 0 27 17 49 38 23 20 56 44 75 53 115 56
145 69 158 69 8 0 29 9 45 20 17 11 38 20 48 20 10 0 15 5 12 10 -3 6 1 10 10
10 17 0 94 45 110 65 12 15 262 175 284 182 17 5 51 20 121 51 25 11 77 34
115 52 39 17 84 37 100 45 17 8 44 17 60 21 17 4 35 10 40 15 6 4 31 11 55 15
25 3 54 12 66 19 12 8 50 19 85 25 35 7 69 15 74 20 6 4 26 11 45 15 19 4 44
14 55 22 29 20 69 13 73 -14z m3726 18 c8 -12 158 -61 187 -61 14 0 42 -9 64
-20 22 -11 48 -20 59 -20 18 0 148 -42 185 -59 9 -5 34 -16 56 -26 22 -9 58
-25 80 -35 22 -10 56 -25 75 -33 128 -57 162 -74 220 -112 36 -23 85 -54 110
-70 25 -15 50 -33 55 -39 18 -22 103 -76 119 -76 9 0 16 -4 16 -10 0 -5 8 -10
19 -10 10 0 24 -7 31 -15 7 -8 31 -20 54 -26 64 -16 187 -80 226 -116 19 -18
37 -33 40 -33 16 -1 30 -19 24 -33 -5 -13 -19 -17 -66 -17 -33 0 -102 -5 -155
-11 -70 -8 -98 -8 -106 0 -6 6 -48 11 -100 11 -74 0 -94 3 -118 21 -28 19 -31
20 -48 5 -24 -22 -55 -20 -101 6 -38 23 -39 23 -53 4 -14 -19 -15 -19 -45 2
-36 26 -58 28 -66 6 -5 -14 -8 -14 -28 0 -27 19 -89 23 -70 4 18 -18 15 -28
-8 -28 -11 0 -23 7 -26 15 -4 8 -13 15 -21 15 -8 0 -22 9 -31 20 -15 17 -19
18 -35 5 -18 -13 -17 -14 7 -30 39 -26 32 -39 -16 -31 -51 8 -93 32 -109 63
-7 13 -18 23 -26 23 -15 0 -17 -16 -3 -25 15 -9 12 -65 -2 -65 -33 0 -88 14
-88 21 0 22 -68 89 -89 89 -14 -1 -13 -3 2 -14 11 -9 17 -27 17 -55 0 -34 -3
-41 -20 -41 -11 0 -39 20 -63 45 -46 46 -67 56 -67 30 0 -8 5 -15 10 -15 16 0
12 -30 -6 -37 -8 -3 -31 3 -50 13 -30 16 -34 23 -28 46 3 17 1 28 -5 28 -6 0
-11 7 -11 15 0 8 -4 15 -10 15 -5 0 -10 -18 -10 -40 0 -22 -4 -40 -9 -40 -5 0
-11 -9 -14 -20 -11 -41 -74 -35 -70 6 1 10 -3 22 -10 26 -6 4 -10 28 -8 59 2
49 -7 68 -31 69 -5 0 -8 -25 -8 -55 0 -30 -4 -55 -10 -55 -5 0 -10 -6 -10 -13
0 -7 -20 -23 -44 -37 -37 -20 -47 -22 -60 -11 -24 20 -19 59 9 85 14 13 25 31
25 40 0 9 5 16 10 16 13 0 13 27 0 35 -18 11 -45 -4 -58 -35 -8 -18 -21 -30
-32 -30 -10 0 -22 -5 -25 -10 -4 -6 -11 -8 -16 -5 -12 8 -12 45 1 45 6 0 10
11 10 24 0 13 7 27 16 30 8 3 12 10 9 16 -3 6 1 13 9 16 9 3 16 15 16 25 0 10
5 19 10 19 6 0 10 11 10 25 0 14 5 25 10 25 6 0 10 9 10 19 0 11 6 26 13 33 7
7 16 21 20 31 10 27 29 20 87 -33 30 -27 61 -50 70 -50 9 0 34 -15 55 -34 21
-19 50 -40 64 -46 14 -7 46 -21 71 -33 25 -11 53 -24 62 -28 10 -5 40 -9 66
-9 27 0 52 -3 56 -7 21 -21 139 -32 361 -33 285 -1 358 -14 466 -82 110 -69
209 -85 209 -35 0 18 -13 30 -62 54 -35 17 -79 35 -98 38 -19 4 -40 11 -45 15
-6 5 -60 14 -120 21 -61 6 -115 15 -120 20 -6 4 -44 8 -85 8 -73 0 -295 30
-315 42 -5 3 -23 9 -40 13 -61 14 -201 58 -227 72 -14 8 -31 14 -37 14 -6 0
-34 15 -63 33 -77 48 -175 93 -239 111 -69 19 -89 39 -65 64 9 10 16 24 16 30
0 7 5 12 10 12 6 0 10 7 10 15 0 8 5 15 10 15 6 0 10 8 10 18 0 9 11 29 25 44
14 15 25 36 25 48 0 11 5 20 10 20 6 0 10 11 10 23 0 13 3 27 7 30 9 10 61 8
67 -2z m-3340 -237 c10 -4 16 -18 16 -35 0 -28 4 -31 45 -33 19 -1 20 -9 23
-110 2 -67 7 -113 15 -122 31 -35 37 -45 37 -64 0 -11 5 -20 10 -20 6 0 10 -9
10 -20 0 -11 5 -20 10 -20 6 0 10 -7 10 -15 0 -18 -5 -18 -31 -5 -10 6 -19 19
-19 30 0 10 -4 22 -10 25 -5 3 -10 17 -10 31 0 15 -6 24 -15 24 -8 0 -15 9
-15 20 0 11 -4 20 -10 20 -5 0 -10 9 -10 20 0 11 -4 20 -10 20 -5 0 -10 13
-10 29 0 16 -7 34 -15 41 -8 7 -15 18 -15 24 0 6 -9 18 -20 26 -11 8 -20 24
-20 37 0 12 -4 24 -9 27 -13 9 -19 65 -7 70 16 7 33 7 50 0z m2930 0 c21 -8
21 -63 1 -70 -10 -4 -13 -13 -10 -24 3 -11 0 -22 -8 -27 -19 -11 -57 -79 -57
-102 0 -10 -7 -24 -15 -31 -8 -7 -15 -19 -15 -26 0 -8 -4 -14 -10 -14 -5 0
-10 -9 -10 -20 0 -11 -4 -20 -10 -20 -5 0 -10 -11 -10 -24 0 -13 -7 -26 -15
-30 -8 -3 -15 -16 -15 -30 0 -22 -16 -36 -41 -36 -5 0 -9 7 -9 15 0 8 5 15 10
15 6 0 10 9 10 19 0 10 7 21 15 25 8 3 15 12 15 21 0 16 20 56 33 66 4 3 10
56 14 118 5 93 9 111 21 106 28 -11 52 5 52 35 0 34 21 47 54 34z m-2556 -30
c31 -18 65 -28 109 -32 35 -2 66 -9 69 -13 3 -5 39 -9 80 -9 51 0 73 -3 69
-11 -8 -11 -193 -10 -210 2 -5 3 -41 9 -78 13 -69 7 -107 28 -107 61 0 21 17
19 68 -11z m2202 11 c0 -33 -34 -53 -110 -64 -123 -18 -277 -25 -284 -12 -5 8
16 11 68 11 41 0 77 4 80 9 3 4 36 10 74 13 53 4 78 11 108 32 44 30 64 33 64
11z m-1805 -75 c-3 -5 -12 -10 -20 -10 -8 0 -17 5 -20 10 -4 6 5 10 20 10 15
0 24 -4 20 -10z m1390 0 c-3 -5 -12 -10 -20 -10 -8 0 -17 5 -20 10 -4 6 5 10
20 10 15 0 24 -4 20 -10z m-1555 -140 c0 -16 5 -30 10 -30 6 0 10 -7 10 -15 0
-19 33 -54 74 -80 44 -27 206 -17 265 16 22 13 41 30 41 37 0 6 7 12 16 12 32
0 11 -44 -31 -64 -22 -11 -48 -23 -58 -28 -27 -14 -206 -13 -220 1 -6 6 -18
11 -27 11 -28 0 -89 53 -90 78 0 12 -4 22 -10 22 -5 0 -10 16 -10 35 0 24 5
35 15 35 10 0 15 -10 15 -30z m230 -5 c-7 -8 -17 -15 -23 -15 -6 0 -3 6 8 13
11 9 15 19 10 28 -6 11 -5 12 5 2 11 -10 11 -15 0 -28z m1217 3 c-3 -7 -5 -2
-5 12 0 14 2 19 5 13 2 -7 2 -19 0 -25z m263 2 c0 -18 -6 -33 -15 -36 -8 -4
-15 -15 -15 -27 0 -23 -56 -77 -80 -77 -9 0 -21 -5 -27 -11 -11 -11 -195 -15
-213 -4 -5 3 -18 8 -28 10 -30 5 -92 46 -92 60 0 22 22 29 32 11 19 -34 89
-59 182 -64 80 -4 93 -3 132 19 27 14 50 37 59 56 9 18 20 33 25 33 6 0 10 14
10 30 0 20 5 30 15 30 10 0 15 -10 15 -30z m-1540 -16 c0 -2 -11 2 -25 8 -14
6 -25 15 -25 20 0 5 11 1 25 -8 14 -9 25 -18 25 -20z m150 -183 c0 -10 -49
-21 -97 -21 -22 0 -32 4 -27 11 4 7 21 9 40 6 19 -3 36 -1 39 4 8 11 45 12 45
0z m1117 -1 c17 0 34 -4 38 -10 4 -6 -7 -10 -28 -10 -50 0 -97 11 -97 22 0 6
12 8 28 4 15 -4 41 -7 59 -6z m-983 -128 c8 -13 -40 -36 -55 -27 -9 6 -7 11 6
22 21 15 41 17 49 5z m820 -7 c17 -13 17 -15 3 -20 -19 -8 -60 12 -52 26 9 13
27 11 49 -6z m-1529 -5 c3 -5 -1 -10 -10 -10 -9 0 -13 5 -10 10 3 6 8 10 10
10 2 0 7 -4 10 -10z m2210 0 c3 -5 -1 -10 -9 -10 -9 0 -16 5 -16 10 0 6 4 10
9 10 6 0 13 -4 16 -10z m-1860 -156 c-33 -26 -71 -30 -97 -10 -33 24 -21 36
36 36 30 0 58 5 62 11 4 8 10 7 18 -1 8 -9 4 -18 -19 -36z m1547 26 c33 0 48
-4 48 -13 0 -42 -69 -49 -115 -12 -25 21 -27 27 -15 35 9 6 18 6 24 0 6 -6 32
-10 58 -10z m-1284 -13 c2 -10 -2 -25 -9 -33 -8 -9 -11 -44 -10 -98 1 -51 -2
-87 -8 -91 -14 -8 -14 -45 -1 -45 6 0 10 -18 10 -40 0 -22 5 -40 10 -40 6 0
10 -8 10 -19 0 -10 7 -24 15 -31 8 -7 15 -18 15 -24 0 -6 9 -22 20 -36 11 -14
20 -33 20 -42 0 -10 5 -18 10 -18 6 0 10 -7 10 -15 0 -8 5 -15 10 -15 6 0 10
-7 10 -15 0 -8 4 -15 9 -15 17 0 60 -79 63 -116 3 -34 6 -39 28 -39 23 0 25 4
28 46 2 37 -2 50 -23 73 -14 15 -25 31 -25 37 0 5 -4 9 -10 9 -5 0 -10 7 -10
15 0 8 -4 15 -10 15 -5 0 -10 7 -10 15 0 8 -4 15 -10 15 -5 0 -10 7 -10 15 0
8 -4 15 -9 15 -4 0 -20 18 -35 40 -23 34 -26 50 -26 119 0 44 5 83 10 86 6 3
10 22 10 41 0 19 5 34 10 34 6 0 10 20 10 44 0 25 5 48 10 51 6 3 10 15 10 26
0 10 5 19 10 19 6 0 10 9 10 20 0 20 7 20 340 20 330 0 340 -1 340 -19 0 -11
5 -23 10 -26 6 -3 10 -15 10 -26 0 -10 5 -19 10 -19 6 0 10 -20 10 -44 0 -25
5 -48 10 -51 6 -3 10 -22 10 -41 0 -19 5 -34 10 -34 6 0 10 -32 10 -75 l0 -74
-61 -88 c-34 -48 -66 -89 -70 -91 -5 -2 -9 -10 -9 -18 0 -8 -3 -14 -7 -14 -15
0 -33 -54 -33 -97 0 -39 2 -43 25 -43 23 0 25 4 25 45 0 31 5 47 15 51 8 4 15
12 15 20 0 8 5 14 10 14 6 0 10 7 10 15 0 8 5 15 10 15 6 0 10 7 10 15 0 8 5
15 10 15 6 0 10 6 10 14 0 8 7 17 16 20 8 3 13 10 10 15 -4 5 1 16 9 24 8 9
15 20 15 26 0 6 5 11 10 11 6 0 10 9 10 19 0 11 5 23 10 26 6 3 10 14 10 25 0
10 6 20 13 23 9 3 12 16 10 34 -3 19 1 34 11 42 18 15 22 41 6 41 -6 0 -10 38
-10 95 0 57 -4 95 -10 95 -5 0 -10 14 -10 31 l0 31 62 -4 c52 -4 64 -8 77 -29
9 -13 26 -34 39 -47 12 -13 22 -29 22 -37 0 -8 5 -17 10 -20 6 -3 10 -17 10
-30 0 -13 5 -27 10 -30 6 -3 10 -33 10 -66 0 -33 4 -59 10 -59 19 0 10 -17
-15 -28 -24 -11 -25 -15 -25 -102 0 -53 -4 -90 -10 -90 -5 0 -10 -13 -10 -30
0 -16 -4 -30 -10 -30 -5 0 -10 -8 -10 -18 0 -9 -11 -29 -25 -44 -15 -17 -25
-39 -25 -58 0 -17 -9 -40 -20 -52 -11 -12 -20 -30 -20 -40 0 -10 -7 -21 -15
-24 -10 -4 -15 -20 -15 -50 0 -28 -5 -44 -12 -45 -10 0 -10 -2 0 -6 15 -6 17
-179 2 -188 -5 -3 -10 -22 -10 -41 0 -22 -6 -37 -15 -40 -8 -4 -15 -12 -15
-20 0 -8 -4 -14 -10 -14 -5 0 -10 -9 -10 -20 0 -18 -65 -70 -87 -70 -5 0 -25
-11 -46 -25 -46 -32 -156 -48 -190 -29 -12 7 -32 19 -44 25 -23 12 -32 49 -13
49 6 0 10 11 10 25 0 25 0 25 -95 25 -86 0 -95 -2 -95 -19 0 -10 7 -24 15 -31
22 -19 19 -25 -29 -57 -42 -28 -47 -29 -115 -22 -53 6 -79 14 -104 33 -19 14
-39 26 -45 26 -20 0 -91 54 -92 70 0 8 -9 26 -20 40 -11 14 -20 40 -20 58 0
17 -4 32 -9 32 -15 0 -25 168 -12 184 8 10 9 16 1 21 -5 3 -10 24 -10 45 0 21
-4 42 -10 45 -5 3 -10 15 -10 26 0 10 -4 19 -10 19 -5 0 -10 6 -10 14 0 8 -7
16 -15 20 -9 3 -15 19 -15 41 0 19 -4 35 -10 35 -5 0 -10 7 -10 15 0 8 -4 15
-10 15 -5 0 -10 9 -10 19 0 11 -4 23 -10 26 -5 3 -10 17 -10 29 0 13 -7 29
-15 36 -11 9 -15 34 -15 96 0 74 -2 85 -22 98 -18 13 -19 18 -8 31 8 10 11 33
8 65 -4 37 -1 50 10 55 9 3 13 14 9 31 -3 16 1 28 9 31 8 3 14 13 14 24 0 10
8 24 18 31 9 7 23 25 31 40 15 30 34 36 101 34 35 -1 46 -5 48 -19z m-492 -4
c21 -28 17 -33 -31 -33 -49 0 -51 1 -33 30 16 25 46 26 64 3z m2003 -2 c24
-24 18 -31 -29 -31 -46 0 -53 7 -32 31 21 24 37 24 61 0z m-2224 -67 c14 -15
22 -31 19 -36 -3 -5 1 -20 10 -33 9 -13 16 -31 16 -39 0 -7 7 -16 15 -20 8 -3
15 -15 15 -26 0 -11 5 -20 10 -20 6 0 10 -18 10 -40 0 -22 5 -40 10 -40 6 0
10 -8 10 -19 0 -10 7 -24 15 -31 9 -7 13 -21 10 -31 -4 -12 -1 -21 9 -25 9 -3
16 -14 16 -24 0 -11 5 -22 10 -25 6 -3 10 -17 10 -30 0 -13 5 -27 10 -30 6 -3
10 -14 10 -25 0 -10 7 -20 15 -24 8 -3 15 -16 15 -30 0 -14 5 -28 10 -31 6 -3
10 -17 10 -30 0 -13 5 -27 10 -30 6 -3 10 -17 10 -30 0 -13 5 -27 10 -30 6 -3
10 -14 10 -25 0 -10 7 -20 15 -24 9 -3 15 -18 15 -36 0 -16 5 -30 10 -30 6 0
10 -11 10 -24 0 -14 5 -28 10 -31 6 -3 10 -19 10 -35 0 -15 7 -30 15 -34 8 -3
15 -15 15 -26 0 -11 5 -20 10 -20 6 0 10 -9 10 -19 0 -11 5 -23 10 -26 6 -3
10 -17 10 -31 0 -14 6 -27 13 -30 8 -3 12 -16 9 -33 -3 -21 2 -33 22 -48 14
-12 26 -28 26 -36 0 -9 5 -19 10 -22 6 -3 10 -17 10 -30 0 -13 5 -27 10 -30 6
-3 10 -21 10 -40 0 -20 6 -35 15 -39 8 -3 15 -15 15 -26 0 -11 5 -20 10 -20 6
0 10 -13 10 -30 0 -16 5 -30 10 -30 6 0 10 -13 10 -30 0 -16 5 -30 10 -30 6 0
10 -11 10 -24 0 -13 7 -29 15 -36 8 -7 15 -23 15 -36 0 -12 5 -26 10 -29 6 -3
10 -15 10 -26 0 -10 5 -19 10 -19 6 0 10 -13 10 -30 0 -16 5 -30 10 -30 6 0
10 -13 10 -29 0 -17 6 -31 16 -35 9 -4 14 -13 10 -21 -3 -9 1 -18 9 -21 9 -4
15 -19 15 -35 0 -16 5 -29 10 -29 6 0 10 -9 10 -20 0 -11 5 -20 10 -20 6 0 10
-12 10 -26 0 -14 7 -32 15 -40 8 -8 12 -20 9 -28 -3 -7 2 -19 11 -26 8 -7 15
-21 15 -31 0 -11 5 -19 10 -19 6 0 10 -13 10 -30 0 -16 5 -30 10 -30 6 0 10
-11 10 -24 0 -14 5 -28 10 -31 6 -3 10 -15 10 -26 0 -11 7 -22 15 -25 9 -4 15
-19 15 -35 0 -16 5 -29 10 -29 6 0 10 -9 10 -20 0 -11 5 -20 10 -20 6 0 10
-13 10 -30 0 -16 5 -30 10 -30 6 0 10 -15 10 -34 0 -18 7 -39 15 -46 8 -7 15
-23 15 -36 0 -13 5 -24 10 -24 6 0 10 -13 10 -30 0 -16 5 -30 10 -30 6 0 10
-9 10 -19 0 -11 5 -23 10 -26 6 -3 10 -23 10 -44 0 -22 6 -44 15 -51 8 -7 15
-19 15 -28 0 -23 30 -52 54 -52 32 0 66 28 66 55 0 13 5 27 10 30 6 3 10 21
10 39 0 33 23 91 41 101 5 4 9 17 9 31 0 13 5 24 10 24 6 0 10 14 10 30 0 17
5 30 10 30 6 0 10 15 10 34 0 19 5 38 10 41 6 3 10 17 10 31 0 14 7 27 16 31
8 3 13 11 10 19 -3 7 2 18 10 24 8 7 14 23 14 36 0 12 5 26 10 29 6 3 10 15
10 26 0 10 5 19 10 19 6 0 10 11 10 24 0 13 7 29 15 36 9 7 13 21 10 31 -3 9
-1 20 4 23 14 9 41 66 41 87 0 10 5 21 10 24 6 3 10 14 10 24 0 21 27 78 41
86 5 4 9 17 9 30 0 13 5 27 10 30 6 3 10 15 10 26 0 10 5 19 10 19 6 0 10 14
10 30 0 17 5 30 10 30 6 0 10 11 10 24 0 13 7 29 15 36 8 7 15 21 15 31 0 11
5 19 10 19 6 0 10 14 10 30 0 17 5 30 10 30 6 0 10 14 10 30 0 17 5 30 10 30
6 0 10 11 10 24 0 13 7 29 15 36 8 7 15 23 15 36 0 12 5 26 10 29 6 3 10 15
10 26 0 10 5 19 10 19 6 0 10 15 10 34 0 19 4 38 10 41 6 3 10 17 10 31 0 14
7 27 15 30 8 4 15 14 15 25 0 10 9 23 20 29 14 7 20 21 20 45 0 18 5 37 10 40
6 3 10 17 10 31 0 14 7 27 15 30 8 4 15 14 15 24 0 11 5 22 10 25 6 3 10 15
10 26 0 10 5 19 10 19 6 0 10 14 10 30 0 17 5 30 10 30 6 0 10 11 10 24 0 13
7 29 15 36 8 7 15 23 15 36 0 12 5 26 10 29 6 3 10 15 10 26 0 10 5 19 10 19
6 0 10 13 10 29 0 17 6 31 16 35 11 4 14 13 10 30 -4 16 -1 26 9 30 9 3 15 18
15 36 0 16 5 30 10 30 6 0 10 9 10 19 0 11 5 23 10 26 6 3 10 17 10 31 0 14 7
27 15 30 8 4 15 14 15 24 0 11 5 22 10 25 6 3 10 17 10 30 0 13 5 27 10 30 6
3 10 14 10 25 0 10 7 20 15 24 9 3 15 19 15 41 0 19 5 35 10 35 6 0 10 9 10
19 0 11 5 23 10 26 6 3 10 13 10 21 0 8 9 25 20 36 12 13 18 29 14 40 -3 10
-1 18 5 18 6 0 11 6 11 14 0 15 21 26 51 26 16 0 19 -7 19 -44 0 -31 -5 -46
-16 -50 -9 -3 -14 -13 -11 -20 3 -8 -1 -20 -9 -26 -8 -7 -14 -23 -14 -36 0
-12 -4 -26 -10 -29 -5 -3 -10 -22 -10 -41 0 -19 -4 -34 -10 -34 -5 0 -10 -11
-10 -24 0 -13 -7 -29 -15 -36 -8 -7 -15 -21 -15 -31 0 -11 -4 -19 -10 -19 -5
0 -10 -13 -10 -30 0 -16 -4 -30 -10 -30 -5 0 -10 -13 -10 -29 0 -16 -6 -31
-14 -34 -7 -3 -13 -18 -13 -33 0 -16 -6 -30 -12 -32 -6 -2 -11 -17 -11 -33 0
-16 -4 -29 -10 -29 -5 0 -10 -13 -10 -30 0 -16 -4 -30 -10 -30 -5 0 -10 -9
-10 -20 0 -11 -7 -23 -15 -26 -9 -4 -15 -19 -15 -35 0 -16 -4 -29 -10 -29 -5
0 -10 -9 -10 -19 0 -11 -4 -23 -10 -26 -5 -3 -10 -17 -10 -29 0 -13 -7 -29
-15 -36 -8 -7 -13 -16 -10 -20 3 -4 -2 -13 -10 -20 -8 -7 -15 -28 -15 -46 0
-19 -4 -34 -10 -34 -5 0 -10 -13 -10 -30 0 -16 -4 -30 -10 -30 -5 0 -10 -11
-10 -24 0 -13 -7 -29 -15 -36 -8 -7 -15 -21 -15 -31 0 -11 -4 -19 -10 -19 -5
0 -10 -9 -10 -19 0 -11 -4 -23 -10 -26 -5 -3 -10 -17 -10 -30 0 -13 -4 -27
-10 -30 -5 -3 -10 -14 -10 -25 0 -10 -7 -20 -15 -24 -8 -3 -15 -15 -15 -26 0
-11 -4 -20 -10 -20 -5 0 -10 -15 -10 -34 0 -19 -4 -38 -10 -41 -5 -3 -10 -17
-10 -29 0 -13 -11 -35 -25 -50 -14 -15 -25 -38 -25 -52 0 -13 -4 -24 -10 -24
-5 0 -10 -13 -10 -30 0 -16 -4 -30 -10 -30 -5 0 -10 -13 -10 -30 0 -16 -4 -30
-10 -30 -5 0 -10 -13 -10 -29 0 -16 -6 -31 -15 -35 -8 -3 -15 -15 -15 -26 0
-11 -4 -20 -10 -20 -5 0 -10 -9 -10 -19 0 -11 -5 -23 -10 -26 -6 -3 -10 -17
-10 -30 0 -13 -4 -27 -10 -30 -5 -3 -10 -17 -10 -30 0 -13 -4 -26 -9 -30 -14
-8 -41 -65 -41 -87 0 -10 -4 -18 -10 -18 -5 0 -10 -13 -10 -30 0 -16 -4 -30
-10 -30 -5 0 -10 -8 -10 -19 0 -10 -6 -24 -14 -31 -8 -6 -13 -17 -10 -24 3 -8
-2 -20 -10 -29 -9 -9 -16 -26 -16 -39 0 -13 -9 -29 -20 -36 -13 -8 -20 -23
-20 -43 0 -18 -10 -40 -25 -57 -15 -15 -24 -35 -21 -44 2 -10 0 -20 -4 -23
-13 -8 -40 -66 -40 -86 0 -10 -4 -21 -10 -24 -6 -3 -10 -15 -10 -26 0 -10 -4
-19 -10 -19 -5 0 -10 -11 -10 -24 0 -13 -7 -29 -15 -36 -8 -7 -15 -21 -15 -31
0 -11 -4 -19 -10 -19 -5 0 -10 -13 -10 -30 0 -16 -4 -30 -10 -30 -5 0 -10 -9
-10 -20 0 -11 -4 -20 -10 -20 -5 0 -10 -8 -10 -19 0 -10 -6 -24 -14 -31 -8 -6
-12 -19 -9 -27 4 -9 -1 -21 -9 -27 -9 -6 -17 -20 -19 -30 -2 -10 -12 -24 -21
-29 -22 -14 -68 9 -68 35 0 10 -4 18 -10 18 -5 0 -10 14 -10 30 0 17 -4 30
-10 30 -5 0 -10 6 -10 13 0 18 -28 75 -41 82 -5 4 -9 15 -9 25 0 11 -9 35 -20
55 -11 20 -20 44 -20 55 0 10 -4 22 -10 25 -5 3 -10 14 -10 25 0 10 -7 21 -16
24 -10 4 -13 13 -9 25 3 10 -1 24 -10 31 -8 7 -15 21 -15 31 0 11 -4 19 -10
19 -5 0 -10 14 -10 30 0 17 -4 30 -10 30 -5 0 -10 7 -10 15 0 8 -4 15 -10 15
-5 0 -10 15 -10 34 0 25 -6 38 -25 50 -16 10 -25 26 -25 41 0 14 -4 25 -10 25
-5 0 -10 14 -10 30 0 17 -4 30 -10 30 -5 0 -10 9 -10 19 0 11 -4 23 -10 26 -5
3 -10 17 -10 31 0 14 -7 27 -15 30 -9 4 -15 19 -15 35 0 16 -4 29 -10 29 -5 0
-10 9 -10 19 0 11 -4 23 -10 26 -5 3 -10 17 -10 29 0 13 -6 29 -14 35 -8 7
-12 21 -9 31 3 12 -1 22 -11 26 -9 3 -16 14 -16 24 0 11 -4 22 -10 25 -5 3
-10 15 -10 26 0 10 -4 19 -10 19 -5 0 -10 14 -10 30 0 17 -4 30 -10 30 -5 0
-10 11 -10 24 0 13 -7 29 -15 36 -8 7 -15 23 -15 36 0 13 -4 24 -10 24 -5 0
-10 14 -10 30 0 17 -4 30 -10 30 -5 0 -10 7 -10 15 0 8 -4 15 -10 15 -5 0 -10
12 -10 26 0 14 -7 32 -15 40 -8 9 -15 29 -15 45 0 16 -4 29 -10 29 -5 0 -10 9
-10 19 0 11 -4 23 -10 26 -5 3 -10 15 -10 26 0 10 -4 19 -10 19 -5 0 -10 13
-10 29 0 16 -6 31 -15 35 -8 3 -15 12 -15 20 0 9 -9 31 -20 51 -11 20 -20 44
-20 55 0 10 -4 22 -10 25 -5 3 -10 17 -10 29 0 13 -7 29 -15 36 -8 7 -15 28
-15 46 0 19 -4 34 -10 34 -5 0 -10 9 -10 20 0 11 -4 20 -10 20 -5 0 -10 14
-10 30 0 17 -4 30 -8 30 -10 0 -42 71 -42 93 0 9 -4 19 -10 22 -5 3 -10 15
-10 26 0 10 -4 19 -10 19 -5 0 -10 11 -10 24 0 13 -7 29 -15 36 -8 7 -15 23
-15 36 0 12 -4 26 -10 29 -5 3 -10 17 -10 30 0 13 -4 27 -10 30 -5 3 -10 17
-10 29 0 13 -7 29 -16 37 -8 7 -13 21 -11 31 3 10 1 20 -3 23 -13 8 -40 66
-40 85 0 9 -5 21 -12 28 -6 6 -11 25 -10 42 0 18 -5 33 -14 37 -8 3 -14 18
-14 34 0 16 -4 29 -10 29 -5 0 -10 9 -10 19 0 11 -4 23 -10 26 -5 3 -10 26
-10 51 0 38 3 44 20 44 12 0 32 -12 45 -26z m260 6 c3 -5 15 -10 26 -10 25 0
24 -12 -3 -30 -32 -21 -118 -24 -118 -5 0 8 11 17 25 21 13 3 29 12 36 20 14
16 25 18 34 4z m1955 -46 c0 -9 -12 -12 -42 -10 -60 3 -123 46 -69 46 11 0 22
4 25 9 8 12 86 -28 86 -45z m-1910 -33 c0 -5 9 -13 20 -16 21 -7 28 -49 10
-60 -16 -10 -12 -21 15 -35 20 -11 25 -21 25 -51 0 -21 -6 -39 -12 -42 -10 -4
-10 -7 0 -18 6 -7 12 -21 12 -30 0 -10 6 -19 13 -22 10 -4 10 -7 0 -18 -18
-18 -16 -56 3 -63 10 -4 14 -15 12 -33 -3 -26 -7 -28 -52 -31 -64 -4 -75 8
-37 44 47 44 37 68 -22 57 -33 -7 -38 20 -7 39 30 19 24 27 -22 30 -31 2 -44
8 -46 21 -2 11 3 17 15 17 11 0 28 6 39 14 19 15 19 15 -1 30 -20 16 -20 16 5
35 25 20 25 20 5 35 -11 9 -36 16 -55 16 -20 0 -41 5 -48 12 -20 20 15 48 60
48 27 0 38 4 38 15 0 8 7 15 15 15 8 0 15 -4 15 -9z m1800 -6 c0 -11 11 -15
38 -15 56 -1 96 -39 56 -54 -9 -3 -28 -6 -44 -6 -15 0 -38 -8 -51 -19 l-23
-18 22 -7 c24 -8 30 -42 10 -49 -19 -6 9 -37 34 -37 13 0 18 -6 16 -17 -2 -13
-16 -19 -48 -23 l-45 -5 28 -21 c38 -31 35 -48 -7 -41 -53 9 -64 -13 -26 -53
16 -18 30 -36 30 -41 0 -5 -25 -9 -55 -9 l-55 0 0 35 c0 19 5 35 10 35 6 0 10
14 10 30 0 17 -5 30 -10 30 -11 0 4 31 30 64 11 14 12 20 3 23 -8 3 -13 21
-13 43 0 28 6 41 23 53 18 12 20 18 10 28 -20 20 -15 41 15 66 32 26 42 28 42
8z m-1680 -461 c0 -8 -7 -14 -15 -14 -15 0 -21 21 -9 33 10 9 24 -2 24 -19z
m1566 15 c10 -17 -13 -36 -27 -22 -12 12 -4 33 11 33 5 0 12 -5 16 -11z
m-1526 -80 c0 -6 11 -20 25 -31 14 -11 25 -24 25 -29 0 -6 14 -30 30 -54 38
-55 40 -95 6 -95 -17 0 -31 -10 -43 -30 -19 -32 -43 -40 -43 -14 0 8 14 35 30
60 17 24 26 44 20 44 -5 0 -10 7 -10 16 0 14 -2 14 -22 0 -24 -17 -58 -21 -58
-8 0 5 9 18 20 30 11 12 20 25 20 31 0 5 6 12 13 14 6 3 -7 6 -30 6 -54 1 -64
18 -27 48 32 25 44 29 44 12z m1498 -8 c36 -31 29 -51 -20 -52 -24 0 -37 -3
-30 -6 6 -2 12 -11 12 -19 0 -8 5 -14 10 -14 6 0 10 -7 10 -15 0 -8 5 -15 10
-15 6 0 10 -4 10 -10 0 -16 -46 -12 -60 5 -7 8 -16 15 -21 15 -5 0 -9 -7 -9
-15 0 -8 -6 -15 -12 -16 -10 0 -10 -2 0 -6 6 -2 12 -11 12 -19 0 -8 5 -14 10
-14 6 0 10 -5 10 -11 0 -6 7 -17 15 -26 19 -18 15 -37 -8 -41 -10 -2 -17 3
-17 12 0 9 -4 16 -10 16 -5 0 -10 7 -10 15 0 10 -10 15 -30 15 -27 0 -30 3
-30 30 0 17 5 30 10 30 6 0 10 4 10 9 0 6 11 22 25 37 14 15 25 34 25 43 0 9
9 22 20 29 11 7 20 19 20 27 0 20 20 18 48 -4z m-1380 -315 c3 -39 -1 -50 -20
-66 -13 -11 -28 -19 -34 -20 -18 0 -23 48 -7 61 7 7 12 20 11 29 -4 20 21 52
36 47 6 -2 12 -25 14 -51z m1260 42 c7 -7 12 -25 12 -40 0 -15 5 -28 10 -28 6
0 10 -13 10 -30 0 -34 -14 -38 -48 -14 -18 12 -22 25 -22 70 0 55 12 68 38 42z
m-1238 -171 c0 -7 -5 -18 -12 -25 -20 -20 -38 -14 -38 13 0 20 5 25 25 25 14
0 25 -6 25 -13z m1220 -2 c0 -8 0 -18 1 -22 1 -13 -16 -13 -35 2 -10 7 -15 18
-11 24 10 16 45 13 45 -4z m-1174 -116 c8 -14 -11 -33 -25 -25 -11 7 -4 36 9
36 5 0 12 -5 16 -11z m1109 -9 c0 -7 -6 -15 -12 -17 -8 -3 -13 4 -13 17 0 13
5 20 13 18 6 -3 12 -11 12 -18z m-935 -150 c0 -5 -4 -10 -10 -10 -5 0 -10 -22
-10 -49 0 -65 19 -72 77 -30 24 17 62 33 84 36 36 5 44 2 70 -26 16 -18 29
-36 29 -42 0 -13 24 -11 38 3 7 7 12 20 12 30 0 23 45 25 54 3 3 -8 15 -15 26
-15 11 0 20 7 20 15 0 9 9 15 25 15 17 0 25 -6 25 -16 0 -15 26 -43 41 -44 4
0 19 19 34 41 27 41 27 42 77 36 34 -4 61 -16 90 -38 30 -24 44 -30 56 -23 20
13 23 61 6 97 -12 26 -11 27 12 27 14 0 27 -7 31 -17 3 -10 15 -30 25 -45 22
-32 23 -67 3 -74 -11 -5 -15 -22 -15 -65 0 -74 -20 -109 -61 -109 l-29 0 0
-105 c0 -108 -6 -121 -39 -91 -11 10 -21 12 -31 5 -13 -8 -13 -10 0 -19 11 -7
12 -12 3 -21 -6 -6 -9 -17 -7 -23 2 -6 -9 -17 -26 -24 -27 -12 -30 -18 -30
-57 0 -35 -4 -45 -21 -50 -14 -5 -25 -1 -34 12 -17 21 -20 79 -5 88 6 3 10 21
10 40 0 20 6 35 15 39 8 3 12 12 9 21 -4 8 0 22 7 31 15 18 21 44 10 44 -17 0
-51 -33 -51 -51 0 -10 -4 -19 -10 -19 -5 0 -10 -12 -10 -26 0 -24 -23 -53 -42
-54 -12 0 -9 148 2 155 6 3 10 15 10 26 0 29 29 69 51 69 10 0 21 5 25 11 4 8
9 8 17 0 15 -15 52 -14 65 2 6 6 12 32 13 57 3 41 1 45 -19 48 -13 2 -32 -4
-43 -14 -15 -14 -30 -16 -79 -11 -46 5 -60 4 -60 -7 0 -16 -43 -36 -79 -36
-16 0 -39 10 -54 24 -21 20 -32 23 -76 18 -36 -3 -58 0 -75 12 -14 9 -34 16
-46 16 -17 0 -20 -6 -20 -48 0 -26 5 -53 12 -60 15 -15 65 -16 74 -1 4 8 9 8
17 0 6 -6 19 -11 29 -11 10 0 18 -7 18 -15 0 -8 5 -15 10 -15 6 0 10 -13 10
-29 0 -16 6 -31 15 -35 20 -7 22 -156 2 -156 -20 0 -37 21 -37 46 0 12 -7 27
-15 34 -8 7 -15 17 -15 23 0 13 -30 47 -42 47 -4 0 -8 -9 -8 -20 0 -11 5 -20
10 -20 6 0 10 -13 10 -30 0 -16 5 -30 10 -30 6 0 10 -16 10 -35 0 -19 4 -35 9
-35 4 0 11 -17 14 -37 5 -28 3 -40 -8 -46 -9 -4 -13 -12 -10 -18 9 -13 -29
-11 -43 3 -7 7 -12 28 -12 48 0 40 -14 60 -43 60 -16 0 -17 3 -7 15 9 10 9 15
1 15 -6 0 -11 7 -11 15 0 8 5 15 12 15 8 0 6 6 -5 17 -15 16 -18 16 -35 0 -37
-33 -42 -22 -42 88 l0 105 -30 0 c-19 0 -30 5 -30 14 0 8 -7 16 -15 20 -11 4
-15 22 -15 71 0 37 -4 65 -10 65 -17 0 -10 54 10 80 11 14 20 33 20 43 0 11 8
17 25 17 14 0 25 -4 25 -10z m402 -382 c9 -17 12 -67 9 -178 -2 -85 -5 -158
-8 -163 -10 -16 -23 6 -23 39 0 24 -4 34 -12 31 -7 -2 -13 -19 -13 -38 0 -24
-5 -34 -15 -34 -13 0 -15 26 -18 160 -3 174 4 205 44 205 14 0 29 -9 36 -22z
m-152 -415 c0 -12 5 -25 10 -28 6 -3 10 -41 10 -85 0 -61 3 -79 16 -84 10 -4
14 -15 12 -33 -4 -32 -28 -44 -28 -14 0 13 -14 30 -35 43 -33 22 -35 26 -35
81 0 31 -4 57 -10 57 -5 0 -10 18 -10 40 0 22 5 40 10 40 6 0 10 8 10 18 0 10
3 22 7 26 11 10 43 -35 43 -61z m290 37 c0 -10 5 -22 10 -25 15 -9 12 -61 -5
-75 -10 -8 -15 -30 -15 -64 0 -45 -3 -53 -30 -71 -16 -11 -31 -28 -32 -39 -2
-11 -9 -21 -15 -24 -16 -5 -18 54 -3 63 6 3 10 42 10 85 0 50 4 80 12 82 6 2
13 14 15 26 4 30 33 73 44 66 5 -3 9 -14 9 -24z m-204 -421 c6 -11 35 -8 82 6
19 6 22 4 22 -18 0 -14 -4 -29 -10 -32 -5 -3 -10 -22 -10 -41 0 -19 -4 -34 -9
-34 -5 0 -11 -10 -13 -22 -4 -31 -51 -33 -56 -3 -3 11 -10 24 -18 28 -8 4 -14
24 -14 42 0 19 -4 35 -10 35 -11 0 -14 33 -3 43 10 11 31 8 39 -4z"/>
<path d="M4030 4985 c0 -16 6 -25 15 -25 9 0 15 9 15 25 0 16 -6 25 -15 25 -9
0 -15 -9 -15 -25z"/>
<path d="M4354 4995 c-7 -18 3 -35 22 -35 8 0 14 10 14 25 0 27 -27 35 -36 10z"/>
<path d="M4060 4899 c0 -5 5 -7 10 -4 6 3 10 8 10 11 0 2 -4 4 -10 4 -5 0 -10
-5 -10 -11z"/>
<path d="M4340 4900 c0 -5 5 -10 10 -10 6 0 10 5 10 10 0 6 -4 10 -10 10 -5 0
-10 -4 -10 -10z"/>
<path d="M3850 4866 c0 -13 7 -29 15 -36 8 -7 15 -21 15 -31 0 -10 5 -21 10
-24 6 -3 10 -23 10 -43 1 -47 20 -72 54 -72 27 0 35 14 14 23 -10 4 -9 8 2 17
11 9 12 13 3 17 -7 2 -13 18 -13 34 0 17 -6 32 -15 35 -8 4 -15 18 -15 33 0
32 -33 71 -60 71 -14 0 -20 -7 -20 -24z"/>
<path d="M4513 4883 c-7 -2 -13 -11 -13 -19 0 -8 -4 -14 -10 -14 -5 0 -10 -13
-10 -29 0 -17 -4 -33 -10 -36 -5 -3 -10 -17 -10 -29 0 -13 -7 -29 -16 -37 -14
-11 -14 -13 1 -22 15 -8 15 -10 -2 -23 -17 -12 -16 -13 10 -14 39 0 57 21 57
70 0 27 5 43 15 46 8 4 15 17 15 30 0 13 5 24 10 24 6 0 10 14 10 30 0 30 -14
37 -47 23z"/>
<path d="M3640 3860 c0 -5 5 -10 10 -10 6 0 10 5 10 10 0 6 -4 10 -10 10 -5 0
-10 -4 -10 -10z"/>
<path d="M4760 3860 c0 -5 5 -10 10 -10 6 0 10 5 10 10 0 6 -4 10 -10 10 -5 0
-10 -4 -10 -10z"/>
<path d="M3810 3060 c0 -11 5 -20 10 -20 6 0 10 -13 10 -30 0 -16 5 -30 10
-30 6 0 10 -15 10 -34 0 -19 -4 -38 -10 -41 -16 -10 -12 -75 5 -81 8 -4 15
-11 15 -18 0 -25 65 -56 120 -56 64 0 79 15 80 80 0 43 -2 47 -50 79 -27 19
-56 44 -65 57 -8 12 -24 25 -35 29 -11 3 -20 13 -20 21 0 8 -11 20 -25 26 -14
6 -25 17 -25 25 0 7 -7 13 -15 13 -8 0 -15 -9 -15 -20z"/>
<path d="M4570 3070 c0 -12 -90 -100 -102 -100 -4 0 -8 -6 -8 -12 0 -7 -24
-30 -53 -50 -47 -33 -53 -40 -55 -75 -1 -21 4 -48 10 -60 10 -20 19 -23 73
-23 59 0 65 2 104 40 34 34 41 46 41 79 0 22 -4 43 -10 46 -5 3 -10 17 -10 30
0 13 5 27 10 30 6 3 10 17 10 31 0 14 7 27 15 30 23 9 19 44 -5 44 -11 0 -20
-5 -20 -10z"/>
</g>
</svg>
